<?xml version="1.0" standalone="no"?>
<!DOCTYPE svg PUBLIC "-//W3C//DTD SVG 20010904//EN"
 "http://www.w3.org/TR/2001/REC-SVG-20010904/DTD/svg10.dtd">
<svg version="1.0" xmlns="http://www.w3.org/2000/svg"
 width="1269.000000pt" height="1269.000000pt" viewBox="0 0 1269.000000 1269.000000"
 preserveAspectRatio="xMidYMid meet">
<metadata>
Created by potrace 1.14, written by Peter Selinger 2001-2017
</metadata>
<g transform="translate(0.000000,1269.000000) scale(0.100000,-0.100000)"
fill="#000000" stroke="none">
<path d="M6006 11143 c-1 -1 -50 -3 -108 -4 l-107 -2 5 -206 c6 -337 14 -654
17 -691 l2 -35 100 2 c248 5 344 12 413 27 39 9 152 68 146 77 -3 5 0 9 5 9
39 0 121 125 146 221 18 70 18 197 0 274 -17 73 -60 150 -111 202 -50 49 -161
106 -234 119 -42 7 -268 13 -274 7z m242 -237 c42 -22 80 -70 93 -119 6 -23
14 -49 16 -57 6 -16 4 -99 -3 -133 -21 -109 -90 -165 -215 -172 -54 -3 -57 1
-54 63 1 23 -1 42 -4 42 -9 0 -8 394 1 401 14 9 135 -9 166 -25z"/>
<path d="M7235 10958 c-150 -552 -212 -794 -207 -799 4 -3 43 -15 87 -27 44
-11 174 -46 288 -77 114 -31 213 -55 219 -53 6 2 24 49 39 105 l27 101 -142
37 c-170 45 -196 54 -196 69 0 11 30 118 34 123 1 1 60 -13 131 -32 72 -19
135 -35 141 -35 7 0 16 40 23 100 14 125 14 126 -1 128 -14 0 -231 62 -235 66
-3 3 27 109 31 114 2 1 23 -5 46 -13 24 -9 50 -13 56 -11 7 3 14 1 16 -3 3 -7
209 -64 213 -58 8 9 53 202 50 208 -3 4 -20 10 -38 14 -17 4 -61 15 -97 25
-36 9 -101 27 -145 39 -44 11 -129 35 -189 51 -60 17 -112 30 -116 30 -4 0
-19 -46 -35 -102z"/>
<path d="M4459 10765 c-3 -3 -25 -7 -50 -10 -55 -6 -122 -29 -112 -39 4 -4 1
-5 -7 -2 -18 7 -100 -39 -157 -88 -66 -58 -126 -160 -133 -228 -6 -52 -4 -168
3 -203 9 -47 76 -195 89 -195 4 0 8 -7 8 -15 0 -9 7 -18 15 -21 8 -4 15 -12
15 -19 0 -7 19 -28 41 -47 23 -18 47 -38 53 -44 7 -6 28 -19 46 -29 166 -86
404 -32 563 127 48 49 56 61 45 72 -7 8 -37 49 -67 91 l-55 78 -36 -40 c-19
-22 -58 -55 -85 -74 -66 -45 -142 -52 -211 -19 -48 24 -120 104 -130 146 -3
13 -10 24 -14 24 -4 0 -7 6 -7 13 1 6 -3 34 -7 60 -11 64 4 113 47 157 44 45
64 60 70 54 3 -3 18 1 34 8 17 9 52 13 91 11 62 -2 72 3 50 25 -7 7 -9 12 -6
12 3 0 -9 44 -27 97 -28 89 -48 117 -66 98z"/>
<path d="M8427 10593 c-36 -62 -102 -169 -313 -512 -73 -118 -130 -219 -128
-225 3 -6 52 -39 110 -73 l104 -62 24 37 c13 20 56 91 96 157 40 66 86 140
101 164 l29 44 1 -129 c0 -71 1 -197 2 -280 l1 -151 107 -66 107 -65 84 136
c46 75 88 144 93 154 6 9 35 57 65 105 30 48 60 96 65 105 6 10 33 54 60 99
28 45 49 86 47 91 -1 5 1 7 5 5 5 -3 22 19 39 49 l32 53 -37 22 c-20 12 -37
21 -39 20 -1 -1 -10 5 -18 14 -9 8 -21 12 -27 8 -7 -3 -9 -3 -5 2 5 5 -16 22
-45 40 l-52 31 -58 -95 c-122 -199 -161 -260 -166 -256 -2 3 -6 114 -7 246
l-2 242 -29 23 c-15 12 -44 30 -63 40 -19 11 -37 21 -40 24 -7 8 -97 60 -104
60 -3 0 -20 -26 -39 -57z"/>
<path d="M3135 9963 c-66 -67 -119 -128 -117 -135 2 -7 8 -18 15 -23 7 -6 13
-16 15 -23 1 -8 11 -26 21 -40 21 -31 70 -108 132 -207 24 -38 48 -73 54 -77
5 -4 6 -8 2 -8 -4 0 5 -19 21 -42 47 -70 47 -71 21 -56 -13 7 -26 15 -29 18
-11 11 -112 70 -120 70 -5 0 -10 3 -12 8 -3 7 -295 192 -310 195 -4 1 -64 -54
-132 -122 -104 -103 -124 -126 -116 -141 5 -10 13 -20 17 -22 5 -1 35 -34 67
-73 33 -38 63 -69 68 -68 4 2 7 -1 5 -6 -2 -7 43 -63 114 -141 14 -16 38 -44
54 -64 15 -19 33 -33 38 -29 6 3 7 2 4 -4 -3 -5 4 -20 16 -34 12 -13 38 -42
56 -64 19 -22 39 -39 43 -38 4 2 7 -1 5 -6 -1 -5 25 -39 57 -76 l59 -66 84 83
c46 45 82 86 81 89 -2 4 -32 39 -68 79 -36 40 -72 81 -80 90 -24 28 -143 160
-172 192 -16 17 -28 32 -28 34 0 2 35 -18 78 -44 42 -27 88 -55 101 -63 14 -8
34 -22 45 -31 11 -10 24 -18 29 -18 5 0 20 -9 34 -20 14 -11 30 -17 37 -13 6
3 8 3 4 -2 -8 -8 88 -74 109 -75 6 0 13 -6 16 -12 5 -13 197 168 197 185 0 4
-17 34 -38 65 -21 32 -41 64 -45 72 -4 8 -49 80 -101 160 -52 80 -93 146 -91
148 3 4 45 -30 74 -59 9 -9 57 -52 106 -95 50 -44 106 -93 125 -111 19 -17 46
-41 59 -53 l25 -21 102 102 c77 77 99 105 91 113 -7 6 -41 36 -77 66 -35 30
-74 64 -86 75 -11 11 -44 39 -72 63 -28 23 -70 60 -94 81 -24 21 -101 88 -173
150 -71 62 -141 122 -155 135 -14 12 -29 25 -35 27 -5 2 -64 -51 -130 -118z"/>
<path d="M9642 9753 c-16 -16 -54 -48 -83 -73 -29 -25 -70 -61 -91 -81 -21
-20 -38 -34 -38 -32 0 3 -6 -2 -14 -9 -18 -18 -68 -62 -151 -133 -38 -33 -79
-68 -90 -79 -11 -10 -35 -29 -52 -43 -18 -14 -30 -29 -27 -34 3 -5 2 -8 -3 -7
-13 4 -53 -26 -53 -40 0 -7 -4 -11 -8 -8 -5 3 -20 -6 -35 -20 l-27 -25 33 -35
c17 -20 36 -42 40 -50 5 -8 13 -11 19 -8 6 4 8 3 5 -2 -3 -6 16 -34 41 -63
l47 -54 40 35 c57 50 217 189 238 206 22 19 32 10 18 -17 -6 -11 -12 -31 -13
-45 -1 -15 -5 -26 -9 -26 -4 0 -10 -17 -15 -37 -8 -42 -8 -40 -18 -68 -20 -53
-27 -72 -30 -90 -3 -11 -12 -40 -20 -64 -9 -24 -13 -47 -10 -52 3 -5 0 -9 -5
-9 -21 0 -11 -39 16 -59 14 -12 53 -45 86 -74 103 -89 111 -96 114 -93 5 4 45
148 47 166 1 9 4 20 7 25 3 6 28 85 55 178 l49 167 35 1 c19 0 44 2 55 5 11 2
51 6 89 10 38 3 78 8 90 10 11 3 55 7 96 10 41 3 79 9 84 14 5 5 15 6 22 3 8
-3 21 -2 30 1 13 5 10 12 -15 38 -16 18 -38 42 -48 54 -126 146 -120 142 -166
133 -23 -4 -43 -8 -44 -8 -5 -2 -6 -2 -53 -6 -25 -3 -56 -7 -70 -10 -14 -3
-47 -8 -75 -11 -27 -3 -54 -8 -59 -11 -5 -4 -26 -7 -48 -7 -29 -1 -37 2 -33
12 3 7 5 16 5 18 0 2 5 4 11 4 9 0 158 126 206 175 12 13 28 25 35 28 9 4 5
13 -14 30 -15 14 -25 27 -23 29 2 2 -25 34 -61 73 -35 38 -64 72 -64 77 0 15
-18 8 -48 -19z"/>
<path d="M6080 9471 c-15 -9 -59 -17 -140 -26 -41 -5 -238 -38 -285 -49 -71
-15 -234 -59 -283 -75 -32 -11 -75 -22 -97 -25 -68 -8 -158 -43 -317 -123
-328 -164 -411 -219 -713 -473 -44 -37 -335 -329 -370 -371 -17 -20 -41 -51
-55 -69 -14 -18 -31 -39 -38 -47 -7 -7 -10 -13 -5 -13 4 0 3 -4 -2 -8 -19 -13
-61 -77 -75 -112 -8 -19 -33 -65 -57 -103 -24 -37 -43 -69 -43 -71 0 -3 -19
-37 -43 -78 -40 -67 -127 -240 -127 -251 0 -2 -12 -31 -27 -63 -14 -33 -28
-63 -29 -69 -2 -5 -18 -53 -37 -107 -19 -53 -42 -126 -52 -162 -10 -36 -21
-64 -24 -62 -3 2 -7 -14 -8 -35 0 -22 -4 -47 -9 -57 -4 -9 -8 -21 -8 -27 -5
-41 -28 -163 -33 -175 -9 -22 -14 -42 -18 -70 -1 -14 -4 -25 -5 -25 -3 0 -23
-226 -21 -242 1 -17 1 -36 0 -100 -1 -37 -4 -51 -12 -46 -9 5 -9 3 -1 -8 7 -8
11 -50 10 -106 0 -50 2 -89 7 -86 4 2 7 -1 7 -6 0 -6 -5 -11 -11 -11 -8 0 -8
-4 -2 -12 11 -15 11 -28 -1 -47 -6 -10 -5 -12 2 -7 8 5 12 -5 13 -31 1 -46 8
-114 14 -130 2 -7 -1 -15 -7 -19 -7 -4 -7 -9 1 -14 7 -4 13 -25 15 -47 2 -22
7 -46 11 -53 6 -9 4 -11 -6 -5 -11 7 -12 6 -3 -6 7 -8 14 -32 17 -54 3 -22 9
-48 12 -58 4 -9 2 -24 -5 -32 -7 -9 -10 -18 -6 -22 3 -3 6 -1 6 5 0 7 5 12 12
12 6 0 8 -3 5 -6 -3 -4 -1 -16 5 -27 9 -17 8 -19 -6 -14 -8 3 -18 2 -21 -4 -4
-5 -3 -9 2 -8 25 4 35 -3 30 -21 -3 -12 -1 -18 5 -14 7 5 9 -2 4 -20 -4 -18
-3 -25 4 -21 8 5 16 -30 11 -57 0 -5 3 -8 8 -8 5 0 11 -11 13 -25 4 -16 1 -22
-6 -18 -6 4 -4 -1 4 -12 18 -22 82 -193 82 -217 -1 -10 3 -18 9 -18 5 0 9 -5
9 -11 0 -5 -6 -7 -12 -4 -7 4 -4 -1 6 -9 11 -9 16 -16 12 -16 -4 0 -1 -7 7
-15 9 -8 14 -26 13 -40 -2 -13 0 -22 4 -20 10 6 55 -85 51 -104 -1 -7 2 -10 8
-6 7 4 8 0 4 -11 -4 -10 -2 -15 3 -11 6 3 28 -31 49 -76 21 -45 43 -83 47 -85
4 -2 8 -13 8 -24 0 -12 3 -18 7 -15 8 9 34 -43 27 -54 -3 -5 -1 -8 6 -7 6 2
18 -10 28 -27 9 -16 22 -33 27 -37 6 -4 6 -8 2 -8 -5 0 -1 -7 7 -16 9 -8 32
-41 53 -72 21 -31 42 -61 48 -67 36 -35 58 -67 60 -89 2 -13 7 -32 13 -41 8
-16 9 -16 15 -1 4 10 3 15 -2 12 -5 -3 -12 1 -15 10 -9 23 15 12 33 -16 10
-14 11 -21 4 -16 -7 4 -13 5 -13 1 0 -3 12 -10 26 -15 18 -7 24 -15 20 -26 -4
-12 -2 -15 9 -10 8 3 15 1 15 -4 0 -5 25 -34 55 -63 30 -29 55 -61 55 -70 0
-9 5 -17 11 -17 5 0 7 6 3 13 -5 6 16 -11 46 -40 30 -29 51 -55 47 -59 -8 -8
24 -64 36 -64 5 0 -1 12 -12 27 -12 14 -19 29 -15 32 3 3 10 -2 15 -12 6 -9
14 -15 19 -12 13 8 21 -24 11 -43 -6 -12 -4 -24 5 -37 8 -10 14 -14 14 -8 0 7
-5 15 -10 18 -7 4 -7 12 0 25 9 17 11 17 40 -8 22 -19 26 -28 17 -35 -8 -5 -5
-6 8 -3 21 5 65 -24 65 -44 0 -6 4 -9 8 -6 4 2 19 -4 32 -15 21 -16 23 -20 10
-29 -9 -6 -10 -10 -3 -10 6 0 14 4 18 10 7 11 94 -50 94 -67 1 -7 8 -10 16 -7
8 4 17 -1 21 -10 3 -9 14 -16 24 -16 11 0 21 -4 24 -9 4 -5 -4 -7 -16 -5 -13
2 -7 -2 12 -9 49 -17 120 -60 120 -72 -1 -5 -8 -19 -16 -30 -14 -19 -16 -19
-25 -2 -6 9 -14 15 -20 12 -5 -4 -9 3 -9 14 0 11 -4 22 -10 26 -5 3 -6 13 -3
22 5 12 0 10 -15 -5 -25 -25 -30 -41 -7 -22 12 10 16 9 20 -4 3 -9 7 -23 10
-32 3 -8 9 -13 14 -10 5 3 12 -1 15 -9 6 -15 51 -14 65 1 3 4 -2 4 -11 1 -22
-8 -24 11 -3 19 8 4 12 10 9 15 -3 5 11 0 30 -12 20 -12 36 -25 36 -30 0 -4 6
-6 14 -3 8 3 24 -5 36 -18 13 -13 20 -16 16 -8 -4 8 0 6 8 -4 9 -11 16 -17 16
-13 0 15 59 -23 63 -40 4 -17 5 -17 6 -1 1 16 6 15 45 -7 24 -13 47 -21 51
-17 5 4 4 1 0 -7 -6 -11 -4 -13 8 -8 10 3 17 2 17 -4 0 -6 3 -8 8 -6 4 3 25
-3 46 -14 22 -10 46 -19 53 -19 7 0 13 -5 13 -11 0 -5 -5 -7 -12 -3 -8 5 -9 2
-5 -9 3 -9 2 -19 -3 -22 -6 -4 -10 1 -10 9 0 23 -53 57 -71 45 -12 -8 -12 -10
1 -8 26 4 51 -13 62 -40 l10 -26 22 28 c20 25 44 39 31 17 -3 -6 1 -7 9 -4 11
4 16 0 16 -10 0 -9 6 -19 14 -22 8 -3 14 -11 12 -17 -1 -7 -1 -9 1 -4 3 4 9 4
15 1 5 -3 4 3 -3 14 -7 12 -17 18 -21 16 -4 -3 -8 0 -8 5 0 15 -1 15 89 -18
44 -16 82 -27 85 -23 3 3 6 0 6 -6 0 -9 -31 -25 -52 -27 -20 -1 -30 -24 -19
-42 11 -16 11 -16 6 5 -4 12 -3 21 2 20 4 -1 18 3 31 10 12 7 22 9 22 5 0 -4
5 0 11 10 5 9 15 17 20 17 6 0 7 -4 4 -10 -3 -5 0 -8 7 -5 7 3 18 -6 25 -20
10 -23 10 -25 -7 -20 -23 7 -32 -6 -18 -25 8 -12 9 -11 4 4 -5 14 -2 17 9 12
17 -6 55 13 55 28 0 4 -7 3 -15 -4 -12 -10 -16 -9 -21 4 -4 9 -5 19 -3 21 9 9
104 -31 107 -45 2 -8 10 -22 18 -31 8 -9 11 -19 7 -22 -11 -11 -23 -8 -20 6 1
6 -4 12 -12 12 -8 0 -15 -6 -17 -13 -1 -7 0 -8 3 -2 7 14 23 12 20 -3 -1 -6 5
-12 13 -12 8 0 21 -4 29 -9 11 -7 12 -6 5 5 -12 19 -14 39 -4 39 4 0 11 8 14
17 6 15 5 15 -13 -1 -19 -17 -20 -17 -30 3 -12 22 1 37 22 24 6 -4 20 -8 30
-9 9 -1 18 -3 20 -4 2 -2 23 -5 79 -11 28 -3 54 -41 42 -61 -4 -5 5 -2 20 7
31 20 33 25 7 18 -10 -3 -21 2 -24 10 -4 12 1 14 26 10 18 -3 44 -6 60 -7 16
0 29 -8 33 -19 3 -9 10 -14 16 -11 7 4 6 9 -1 13 -6 4 8 7 33 7 34 -1 42 -4
38 -16 -4 -11 1 -10 16 4 12 11 22 15 22 9 0 -5 7 -18 16 -29 15 -18 15 -18 5
3 -9 18 -8 22 7 20 14 -1 17 -7 14 -24 -2 -13 1 -23 7 -23 5 0 8 6 6 13 -3 6
-1 19 5 27 8 12 13 11 33 -8 13 -12 27 -22 32 -22 5 0 0 7 -11 15 -15 11 -16
15 -4 16 8 1 20 0 25 -1 6 -1 28 -2 50 -1 32 1 46 -4 65 -24 13 -14 31 -25 39
-25 9 0 1 9 -18 21 -18 11 -31 23 -27 26 3 3 13 0 23 -8 11 -9 14 -9 9 -2 -5
9 5 12 38 11 35 -2 43 -5 34 -15 -6 -7 -14 -10 -19 -7 -5 3 -6 -2 -3 -10 5
-13 10 -11 26 9 25 32 51 32 77 -1 22 -28 27 -54 11 -54 -5 0 -9 5 -7 11 1 6
-5 14 -13 16 -12 4 -12 3 -2 -5 8 -5 13 -13 13 -18 -2 -13 38 -13 46 -1 3 6 1
7 -5 3 -7 -4 -12 -1 -12 7 0 8 -9 26 -20 40 -17 22 -18 26 -4 31 23 9 24 8 24
-18 0 -14 10 -32 22 -40 25 -18 35 -51 12 -42 -8 3 -13 2 -9 -3 3 -5 0 -11 -7
-13 -7 -3 -5 -7 6 -11 11 -5 15 -3 10 5 -5 7 -2 9 9 5 12 -4 15 -1 12 15 -4
16 0 19 16 15 15 -4 23 0 26 14 3 10 9 16 14 13 5 -3 6 3 2 13 -6 16 -5 16 10
4 24 -19 21 -4 -4 22 -12 12 -19 17 -16 11 4 -7 1 -26 -6 -42 -12 -30 -13 -31
-44 -15 -60 28 -54 74 8 68 26 -3 39 0 39 8 0 7 14 -3 30 -21 32 -35 39 -35
15 1 -14 22 -14 23 23 22 20 -1 41 1 47 4 5 3 21 6 35 7 26 2 68 9 108 18 25
5 29 -6 9 -23 -8 -6 -17 -7 -23 -1 -6 6 -15 5 -24 -1 -12 -9 -12 -10 3 -5 11
3 20 0 23 -9 5 -11 13 -7 33 18 29 37 61 42 89 13 14 -14 15 -20 4 -37 -9 -15
-10 -24 -2 -37 11 -16 11 -16 6 1 -3 10 0 28 8 39 13 19 13 23 -7 39 -12 9
-18 21 -14 25 4 5 11 4 15 -1 12 -16 47 -41 38 -27 -7 12 3 16 34 13 13 -2 13
0 1 8 -10 6 -21 6 -32 0 -11 -6 -20 -5 -24 1 -3 5 -1 11 4 11 21 3 26 4 40 13
10 6 12 5 7 -2 -4 -7 -3 -12 3 -12 5 0 11 5 13 11 2 6 20 11 41 11 20 0 35 4
32 8 -7 11 36 20 65 14 21 -5 22 -4 10 6 -12 9 -12 11 -1 8 25 -7 24 -27 -1
-37 -16 -7 -18 -10 -6 -10 9 -1 24 9 32 21 15 21 16 21 29 4 8 -10 20 -16 28
-13 11 4 10 6 -2 6 -9 1 -20 8 -23 17 -4 9 -13 14 -21 10 -8 -3 -15 -2 -15 3
0 7 46 21 82 25 3 1 10 5 14 9 4 4 14 -3 22 -15 13 -22 13 -22 7 7 -7 31 -3
30 31 -17 l20 -26 14 21 c12 20 12 21 -2 9 -14 -11 -19 -9 -32 9 -8 12 -12 27
-9 32 3 5 11 0 17 -11 9 -18 14 -19 29 -7 16 11 16 13 2 19 -9 3 -13 2 -10 -4
3 -6 1 -10 -4 -10 -6 0 -11 4 -11 9 0 17 19 22 39 11 16 -8 23 -6 34 10 7 11
17 17 20 13 4 -3 7 -2 7 4 0 11 53 36 76 36 8 0 14 3 14 7 0 12 49 30 55 20 3
-4 -1 -11 -7 -13 -9 -4 -10 -6 -1 -6 7 -1 25 11 40 25 l28 25 -27 -17 c-16 -9
-28 -12 -28 -8 0 10 73 44 94 44 8 0 17 7 20 16 6 16 8 16 24 0 21 -19 32 -20
32 -5 0 5 -4 8 -9 5 -5 -3 -12 1 -15 10 -5 13 -1 15 21 10 18 -4 23 -3 15 2
-10 7 -2 16 32 35 30 17 48 22 52 15 5 -7 2 -8 -7 -3 -8 5 -11 4 -6 0 4 -5 -6
-14 -23 -21 -16 -7 -30 -19 -30 -26 0 -9 3 -9 10 2 5 8 10 11 10 5 0 -7 3 -7
8 0 4 6 16 15 27 21 12 7 19 19 17 30 -2 11 -1 16 3 12 4 -3 16 3 26 13 22 22
56 21 51 0 -3 -16 16 -41 32 -41 6 0 3 5 -6 11 -10 5 -18 15 -18 21 0 7 5 6
15 -2 8 -7 15 -9 15 -5 0 4 -10 15 -22 24 -12 10 -18 23 -14 29 11 18 26 14
19 -5 -4 -11 -3 -14 5 -9 7 4 12 12 12 17 0 6 10 19 23 29 20 17 24 17 39 3
18 -16 39 -10 37 10 0 9 -2 9 -6 0 -2 -7 -9 -13 -14 -13 -6 0 -6 7 0 19 6 10
8 21 4 24 -3 4 3 10 13 13 10 4 28 15 39 25 16 14 23 15 35 6 8 -7 16 -20 18
-30 3 -15 0 -16 -16 -6 -11 7 -18 19 -15 28 4 14 4 14 -6 1 -8 -12 -5 -19 11
-32 13 -9 26 -14 30 -12 12 8 3 45 -13 54 -11 8 -10 12 6 24 11 8 24 12 29 9
5 -4 6 -1 3 5 -4 5 8 22 25 36 18 14 42 34 52 44 19 17 19 16 4 -9 -12 -18
-13 -30 -6 -40 8 -11 9 -11 5 3 -3 9 1 22 9 28 8 7 14 19 14 26 0 22 17 16 23
-8 4 -12 9 -19 13 -15 4 4 13 -1 21 -11 13 -15 13 -15 3 6 -6 12 -15 20 -19
17 -5 -2 -11 4 -14 16 -4 15 10 35 60 82 36 34 71 68 79 74 7 7 14 13 17 13 8
0 3 -30 -5 -31 -4 -1 -14 -2 -20 -3 -7 -1 -12 -10 -11 -19 0 -12 -4 -16 -13
-13 -8 3 -14 1 -14 -5 0 -6 8 -9 18 -7 11 2 16 11 14 23 -2 11 -1 17 3 13 15
-15 43 11 41 37 -3 23 7 34 17 18 2 -5 2 -2 1 5 -4 15 27 53 38 46 4 -3 8 1 8
9 0 8 7 20 15 27 13 11 18 11 28 0 10 -10 9 -12 -5 -7 -24 8 -31 -8 -11 -24 9
-8 14 -9 10 -3 -4 7 0 15 9 18 13 5 14 9 4 21 -13 16 -6 28 42 78 19 19 33 23
22 5 -4 -7 -3 -8 5 -4 6 4 9 12 5 17 -9 15 15 38 34 32 14 -4 15 -3 2 6 -13 9
-12 12 5 25 11 9 17 16 13 16 -4 0 0 9 9 20 12 14 20 16 29 9 15 -12 34 -4 34
14 0 7 -4 6 -10 -3 -9 -13 -11 -13 -20 0 -7 11 -3 20 18 37 15 13 23 23 19 23
-5 0 6 18 23 40 17 22 36 38 41 35 5 -4 6 1 3 9 -6 17 66 127 78 120 4 -3 5 1
3 8 -3 8 3 23 13 33 10 11 19 25 20 30 3 19 37 75 45 75 4 0 6 4 3 9 -3 5 3
20 14 33 11 14 16 29 12 33 -4 5 1 5 11 2 9 -4 17 -2 17 3 0 6 -4 10 -9 10 -4
0 1 19 13 43 12 23 26 42 31 42 6 0 9 -4 7 -9 -2 -5 3 -4 11 2 8 7 16 10 19 7
2 -3 5 2 5 10 0 11 -4 12 -13 4 -8 -7 -15 -6 -20 2 -4 7 -3 14 4 17 6 2 8 10
5 19 -4 10 -2 14 4 10 6 -4 10 -1 9 6 0 6 22 72 49 144 36 97 54 131 64 128
12 -5 12 -3 0 11 -10 12 -11 18 -3 21 7 2 10 13 7 23 -3 11 -1 20 4 20 5 0 9
10 10 22 1 11 8 25 15 29 9 6 9 9 1 9 -6 0 -9 9 -6 20 3 11 9 20 14 20 5 0 8
3 7 8 -1 4 2 27 6 51 6 31 11 40 17 30 6 -9 9 -10 9 -2 0 6 -4 14 -9 17 -10 7
-2 56 9 56 5 0 6 10 2 23 -5 20 -4 21 14 7 17 -14 18 -14 6 1 -8 11 -10 30 -6
55 4 22 7 45 7 52 0 7 6 11 13 8 8 -3 16 -1 19 5 4 5 1 8 -6 7 -7 -2 -15 5
-17 16 -2 11 0 16 6 12 6 -3 14 -2 17 4 4 6 1 9 -7 8 -7 -2 -11 4 -10 12 2 8
6 42 8 74 3 32 7 62 9 66 2 4 5 34 6 68 1 42 6 59 13 55 6 -4 6 0 -1 8 -10 12
-10 18 0 29 10 10 9 11 -3 5 -13 -8 -13 -6 -2 7 9 11 10 18 2 23 -6 3 -7 12
-3 18 4 7 6 38 5 70 -2 43 1 56 9 51 8 -5 9 -3 4 7 -5 7 -9 50 -10 94 -1 45
-4 86 -7 91 -4 8 -6 30 -12 134 -1 20 -5 41 -9 47 -4 6 -3 14 3 18 6 4 7 12 3
18 -9 14 -11 24 -18 102 -3 32 -8 61 -10 64 -3 2 1 11 8 19 7 10 7 13 1 9 -8
-4 -14 10 -18 41 -11 85 -17 107 -36 149 -11 24 -20 46 -20 50 0 20 -101 314
-129 378 -32 72 -41 94 -41 100 0 8 -101 208 -134 265 -14 25 -29 52 -33 60
-10 22 -144 209 -232 323 -42 55 -84 113 -95 130 -10 18 -23 34 -30 36 -6 2
-63 54 -126 116 -125 122 -179 170 -255 231 -27 21 -52 41 -55 44 -10 11 -147
108 -215 152 -99 64 -243 144 -358 199 -53 26 -103 51 -110 57 -18 15 -304
109 -452 148 -202 53 -435 89 -640 99 -62 4 -306 7 -345 5 -8 0 -26 2 -40 5
-14 3 -32 1 -40 -4z m2064 -5816 c-4 -8 -8 -15 -10 -15 -2 0 -4 7 -4 15 0 8 4
15 10 15 5 0 7 -7 4 -15z m-650 -340 c-4 -8 -11 -12 -16 -9 -6 4 -5 10 3 15
19 12 19 11 13 -6z"/>
<path d="M2087 8650 c-31 -67 -57 -125 -57 -129 0 -12 50 -32 62 -25 6 4 8 2
5 -3 -7 -11 46 -35 57 -27 3 2 4 1 1 -3 -3 -3 32 -23 78 -44 83 -38 84 -39 74
-87 -2 -7 -9 -18 -15 -24 -7 -7 -12 -16 -12 -20 0 -5 -15 -39 -33 -77 l-34
-69 -24 19 c-13 10 -28 19 -34 19 -5 0 -32 11 -59 25 -27 13 -54 22 -60 18 -6
-3 -8 -2 -3 2 4 5 -21 21 -55 36 -44 19 -64 24 -67 16 -2 -7 -21 -47 -42 -90
-21 -43 -40 -86 -41 -95 -2 -9 -7 -20 -12 -24 -26 -19 -10 -38 58 -69 39 -18
73 -33 76 -34 3 -1 40 -18 82 -39 43 -20 81 -37 85 -37 5 0 15 -6 23 -14 8 -7
24 -15 35 -17 11 -1 22 -6 25 -9 9 -11 262 -129 276 -129 8 0 14 -4 14 -9 0
-5 17 -15 37 -22 21 -7 51 -20 68 -30 16 -11 35 -19 42 -19 9 0 36 57 32 69 0
2 3 7 8 10 8 6 42 73 69 138 l14 33 -50 25 c-27 14 -56 25 -65 25 -8 0 -15 3
-15 8 0 8 -78 46 -95 47 -5 0 -16 6 -23 13 -7 6 -19 12 -25 12 -7 0 -20 7 -30
14 -16 13 -15 17 15 82 18 38 33 75 35 83 1 8 6 17 11 20 5 3 12 16 16 28 6
20 46 30 46 12 0 -8 28 -19 44 -18 5 0 12 -3 15 -8 12 -17 203 -103 213 -97 7
4 8 2 4 -4 -4 -7 -2 -12 3 -12 6 0 24 27 41 60 17 33 28 60 24 60 -3 0 2 7 11
16 9 9 13 24 10 32 -3 9 -3 13 1 9 4 -4 16 12 26 34 21 47 22 52 8 44 -5 -3
-10 -1 -10 5 0 6 -4 8 -10 5 -5 -3 -10 -2 -10 2 0 9 -69 39 -82 35 -5 -1 -8 2
-8 7 0 5 -17 16 -37 24 -38 15 -125 57 -442 208 -90 43 -168 76 -174 72 -5 -3
-7 -1 -4 4 4 6 -1 13 -11 16 -9 2 -24 8 -32 11 -12 5 -29 -22 -73 -114z"/>
<path d="M10483 8668 c-13 -6 -23 -15 -23 -20 0 -5 -4 -7 -8 -4 -4 2 -40 -10
-78 -27 -50 -23 -69 -37 -66 -47 3 -8 25 -57 49 -109 24 -51 43 -95 41 -96 -4
-4 -178 -85 -183 -85 -2 0 -36 -15 -77 -34 -108 -50 -183 -84 -273 -123 -44
-20 -84 -39 -89 -43 -9 -9 11 -80 23 -80 4 0 8 -6 8 -12 0 -7 14 -43 32 -79
17 -36 31 -71 31 -77 0 -7 7 -12 15 -12 8 0 15 4 15 8 0 5 6 9 13 9 6 0 52 19
100 42 49 22 93 41 98 41 6 0 7 5 3 12 -4 6 -3 8 3 5 14 -9 95 27 85 38 -4 5
-2 5 5 2 6 -4 47 9 90 29 106 49 182 83 191 84 4 1 12 6 19 12 9 7 14 3 18
-15 4 -14 13 -28 22 -31 8 -3 12 -10 9 -15 -3 -4 3 -27 14 -49 11 -23 20 -46
20 -52 0 -6 4 -8 10 -5 5 3 8 0 5 -7 -3 -7 3 -25 13 -40 l18 -28 32 30 c18 16
32 27 32 24 0 -2 18 8 40 22 22 15 40 31 40 36 0 5 4 7 9 4 5 -3 14 1 21 9 10
12 8 24 -6 59 -10 24 -23 42 -28 39 -5 -4 -6 -1 -2 5 6 11 -23 84 -37 90 -4 2
-5 7 -2 12 3 5 0 14 -7 22 -7 7 -14 20 -16 28 -3 19 -23 60 -36 79 -6 7 -11
19 -11 25 -2 23 -38 96 -48 96 -6 0 -8 3 -4 6 3 3 -5 29 -17 58 -13 28 -36 79
-52 114 -15 34 -31 62 -34 61 -3 0 -15 -5 -27 -11z"/>
<path d="M2029 6681 c-96 -30 -155 -143 -128 -245 18 -69 77 -129 139 -143 40
-9 80 -11 80 -3 0 5 6 7 13 4 8 -3 25 -1 38 4 31 12 91 67 82 76 -3 3 -2 6 4
6 20 0 49 102 35 124 -3 6 -7 20 -7 31 -1 33 -15 63 -31 69 -8 3 -13 9 -11 13
3 5 -1 14 -9 21 -8 7 -14 10 -14 7 0 -2 -9 3 -20 12 -10 9 -27 18 -37 21 -42
9 -110 10 -134 3z"/>
<path d="M10465 6674 c-27 -6 -51 -17 -53 -23 -2 -6 -9 -11 -16 -11 -22 0 -69
-78 -70 -116 -1 -18 -4 -34 -8 -34 -13 0 19 -107 41 -137 23 -31 98 -79 108
-70 3 3 15 2 27 -3 29 -11 116 7 123 26 3 8 9 12 13 9 13 -8 66 62 79 104 13
43 6 123 -14 160 -15 30 -75 89 -75 75 0 -5 -4 -3 -8 3 -14 22 -94 31 -147 17z"/>
<path d="M3155 5730 c-3 -5 -1 -10 4 -10 6 0 11 5 11 10 0 6 -2 10 -4 10 -3 0
-8 -4 -11 -10z"/>
<path d="M3176 5683 c-6 -14 -5 -15 5 -6 7 7 10 15 7 18 -3 3 -9 -2 -12 -12z"/>
<path d="M9490 5690 c0 -5 5 -10 11 -10 5 0 7 5 4 10 -3 6 -8 10 -11 10 -2 0
-4 -4 -4 -10z"/>
<path d="M3170 5609 c0 -5 5 -7 10 -4 6 3 10 8 10 11 0 2 -4 4 -10 4 -5 0 -10
-5 -10 -11z"/>
<path d="M9485 5610 c-3 -6 1 -7 9 -4 18 7 21 14 7 14 -6 0 -13 -4 -16 -10z"/>
<path d="M9465 5530 c-3 -6 1 -7 9 -4 18 7 21 14 7 14 -6 0 -13 -4 -16 -10z"/>
<path d="M3215 5470 c3 -5 8 -10 11 -10 2 0 4 5 4 10 0 6 -5 10 -11 10 -5 0
-7 -4 -4 -10z"/>
<path d="M9455 5470 c-3 -5 -1 -10 4 -10 6 0 11 5 11 10 0 6 -2 10 -4 10 -3 0
-8 -4 -11 -10z"/>
<path d="M2465 5308 c-140 -53 -275 -105 -310 -119 -16 -7 -34 -13 -40 -14 -5
-2 -28 -11 -50 -20 -22 -10 -44 -19 -50 -20 -5 -2 -50 -18 -100 -37 -49 -20
-118 -46 -152 -59 -35 -13 -63 -30 -63 -37 0 -7 8 -27 17 -45 9 -18 17 -39 19
-47 1 -8 22 -68 48 -132 25 -64 46 -121 46 -127 0 -6 4 -11 10 -11 5 0 9 -3 8
-7 -4 -13 42 -93 53 -93 6 0 8 -4 5 -9 -7 -10 76 -89 128 -120 75 -46 197 -66
286 -46 14 3 38 8 54 11 43 7 170 68 195 93 11 11 21 18 21 15 0 -3 18 16 40
41 74 86 108 180 105 291 -3 71 -25 174 -37 174 -5 0 -6 4 -3 10 3 5 0 20 -7
32 -6 13 -13 30 -14 38 -2 8 -8 24 -13 37 -17 36 -28 63 -49 123 -11 30 -26
69 -34 86 l-13 30 -100 -38z m33 -394 c17 -80 1 -135 -57 -193 -20 -19 -38
-35 -41 -34 -3 0 -21 -7 -40 -17 -77 -39 -205 -56 -230 -30 -3 3 -21 16 -41
29 -22 15 -44 43 -59 75 -12 28 -27 54 -32 57 -5 3 -3 13 6 21 8 9 12 19 8 22
-3 4 1 4 11 0 10 -3 17 -1 17 6 0 6 4 9 8 6 5 -3 101 30 213 73 232 90 215 91
237 -15z"/>
<path d="M3280 5310 c-9 -6 -10 -10 -3 -10 6 0 15 5 18 10 8 12 4 12 -15 0z"/>
<path d="M10099 5315 c-1 -6 -1 -13 0 -17 0 -5 -4 -8 -10 -8 -6 0 -9 -7 -5
-15 3 -8 2 -15 -2 -15 -8 0 -97 -207 -97 -225 0 -5 -6 -16 -13 -24 -10 -10
-10 -16 -1 -27 7 -8 14 -12 17 -9 3 3 11 -4 19 -15 8 -11 21 -20 29 -20 8 0
14 -4 14 -8 0 -4 18 -19 40 -32 22 -14 40 -29 40 -33 0 -5 4 -6 9 -3 5 3 12
-1 15 -10 3 -8 10 -12 16 -9 5 3 10 1 10 -5 0 -6 8 -14 18 -17 9 -4 26 -15 36
-25 10 -9 24 -15 29 -11 6 3 7 1 3 -6 -4 -6 0 -14 11 -18 10 -4 27 -15 37 -25
11 -10 23 -18 28 -18 4 0 17 -8 29 -17 62 -53 60 -50 44 -57 -8 -3 -15 -1 -15
4 0 5 -10 10 -22 9 -22 0 -40 2 -98 15 -14 3 -41 8 -60 10 -19 3 -48 8 -65 11
-36 8 -91 16 -126 19 -14 2 -30 5 -35 8 -5 3 -21 5 -36 4 -16 -1 -28 2 -28 7
0 5 -10 7 -22 6 -13 -2 -29 0 -36 4 -12 8 -20 -4 -26 -35 -1 -7 -12 -33 -23
-58 -32 -67 -80 -182 -88 -210 -8 -26 -6 -37 8 -33 4 2 7 -2 7 -8 0 -6 7 -8
17 -5 10 4 14 4 10 0 -9 -10 43 -35 56 -27 5 3 7 1 4 -4 -8 -13 20 -26 35 -16
6 3 8 1 5 -4 -8 -13 20 -26 35 -16 7 4 8 1 3 -7 -6 -10 -4 -12 8 -7 9 3 18 0
21 -9 3 -9 10 -12 16 -9 5 3 10 2 10 -3 0 -8 28 -20 47 -20 3 0 9 -5 12 -10 7
-11 131 -73 131 -66 0 3 7 -2 16 -10 8 -9 19 -14 24 -11 5 3 10 1 12 -3 4 -11
300 -158 311 -154 4 1 7 -3 7 -9 0 -5 5 -7 10 -4 6 3 10 0 10 -7 0 -10 3 -9 9
2 6 8 7 18 5 22 -3 4 -1 8 4 8 9 0 27 47 24 63 -1 4 2 7 7 7 8 0 24 41 26 66
0 6 6 19 14 28 8 9 12 18 10 19 -2 1 -13 9 -23 17 -18 13 -19 13 -11 0 7 -12
4 -12 -11 1 -23 20 -136 74 -146 71 -5 -1 -8 2 -8 7 0 8 -37 24 -52 22 -5 -1
-8 4 -8 10 0 6 -7 8 -16 5 -8 -3 -13 -2 -10 3 3 4 -13 14 -34 21 -22 7 -40 17
-40 22 0 4 -3 7 -7 6 -5 -1 -23 6 -40 15 -18 10 -33 15 -33 12 0 -4 -7 0 -15
9 -18 17 -20 30 -3 20 6 -4 21 -8 32 -10 41 -6 82 -13 135 -23 29 -6 57 -9 61
-6 5 3 11 1 15 -4 3 -5 13 -10 23 -10 20 -1 77 -8 77 -11 0 -2 48 -9 93 -14
18 -2 35 -6 39 -10 23 -22 74 18 57 46 -4 7 -3 8 4 4 8 -5 12 0 12 13 0 11 5
23 10 26 6 4 8 11 5 16 -4 5 -1 9 5 9 7 0 10 6 7 14 -3 8 -1 16 4 18 6 2 11
10 13 18 1 8 7 25 14 37 17 32 15 51 -8 58 -11 3 -20 11 -20 17 0 6 -3 9 -6 6
-3 -3 -17 5 -31 18 -14 13 -28 22 -31 19 -3 -2 -12 3 -21 13 -27 30 -108 82
-116 74 -5 -4 -5 -2 -2 4 6 11 -9 23 -25 20 -4 0 -15 9 -23 22 -9 12 -21 22
-26 22 -6 0 -17 7 -26 15 -8 8 -19 12 -25 9 -6 -4 -8 -3 -5 3 3 5 -8 17 -24
27 -17 10 -28 20 -26 23 5 4 31 -4 267 -86 63 -22 117 -38 121 -35 4 2 9 -1
11 -6 2 -6 10 -12 18 -14 8 -2 22 -5 30 -9 41 -15 49 -15 54 0 3 8 4 19 0 24
-3 5 -1 9 5 9 11 0 36 69 32 89 -1 7 2 10 8 6 6 -3 11 1 11 10 0 9 9 34 21 56
11 22 19 45 17 51 -3 8 -87 41 -133 51 -5 2 -16 6 -22 10 -7 5 -17 6 -22 3 -5
-4 -11 -2 -13 2 -3 8 -231 86 -253 87 -5 0 -15 4 -22 8 -18 12 -153 55 -153
50 0 -3 -7 0 -15 7 -8 6 -19 9 -25 5 -5 -3 -10 -2 -10 3 0 8 -33 21 -55 23 -2
0 -21 7 -40 15 -20 8 -41 12 -47 8 -7 -4 -8 -3 -4 4 5 8 -1 12 -16 12 -13 0
-29 5 -36 12 -7 7 -13 8 -13 3z"/>
<path d="M3275 5280 c-4 -6 -11 -7 -17 -4 -7 4 -8 2 -4 -5 6 -9 11 -9 22 0 14
11 18 19 10 19 -3 0 -8 -5 -11 -10z"/>
<path d="M3289 5253 c-13 -16 -12 -17 4 -4 9 7 17 15 17 17 0 8 -8 3 -21 -13z"/>
<path d="M3313 5225 c0 -8 4 -12 9 -9 5 3 6 10 3 15 -9 13 -12 11 -12 -6z"/>
<path d="M3321 5186 c-8 -10 -9 -16 -1 -21 6 -4 9 -1 8 7 -2 7 3 12 10 10 8
-1 11 2 7 8 -8 13 -10 13 -24 -4z"/>
<path d="M9349 5187 c6 -8 7 -18 3 -22 -4 -5 -1 -5 6 -1 10 6 10 11 1 22 -6 8
-14 14 -16 14 -3 0 0 -6 6 -13z"/>
<path d="M9310 5069 c0 -5 5 -7 10 -4 6 3 10 8 10 11 0 2 -4 4 -10 4 -5 0 -10
-5 -10 -11z"/>
<path d="M9293 5045 c0 -8 4 -12 9 -9 5 3 6 10 3 15 -9 13 -12 11 -12 -6z"/>
<path d="M9275 5003 c1 -10 -2 -25 -8 -33 -9 -12 -9 -13 3 -3 16 15 24 53 11
53 -5 0 -8 -8 -6 -17z"/>
<path d="M3413 4965 c0 -8 4 -12 9 -9 5 3 6 10 3 15 -9 13 -12 11 -12 -6z"/>
<path d="M3435 4923 c1 -10 -3 -24 -9 -32 -9 -12 -8 -12 12 0 12 8 18 15 12
17 -6 2 -8 8 -5 12 3 5 1 11 -4 14 -5 4 -8 -2 -6 -11z"/>
<path d="M3469 4833 c-13 -17 -13 -17 6 -3 11 8 22 16 24 17 2 2 0 3 -6 3 -6
0 -17 -8 -24 -17z"/>
<path d="M9246 4832 c-3 -5 1 -9 9 -9 8 0 12 4 9 9 -3 4 -7 8 -9 8 -2 0 -6 -4
-9 -8z"/>
<path d="M3406 4812 c-3 -5 1 -9 9 -9 8 0 12 4 9 9 -3 4 -7 8 -9 8 -2 0 -6 -4
-9 -8z"/>
<path d="M9193 4795 c0 -8 4 -12 9 -9 5 3 6 10 3 15 -9 13 -12 11 -12 -6z"/>
<path d="M9156 4792 c-3 -5 1 -9 9 -9 8 0 12 4 9 9 -3 4 -7 8 -9 8 -2 0 -6 -4
-9 -8z"/>
<path d="M9143 4729 c9 -6 14 -15 11 -21 -4 -7 -2 -8 5 -4 14 9 -3 36 -23 36
-6 0 -3 -5 7 -11z"/>
<path d="M3535 4720 c-3 -6 1 -7 9 -4 18 7 21 14 7 14 -6 0 -13 -4 -16 -10z"/>
<path d="M9110 4700 c-6 -11 -8 -20 -6 -20 3 0 10 9 16 20 6 11 8 20 6 20 -3
0 -10 -9 -16 -20z"/>
<path d="M3527 4669 c7 -7 15 -10 18 -7 3 3 -2 9 -12 12 -14 6 -15 5 -6 -5z"/>
<path d="M9100 4661 c0 -10 19 -25 25 -20 1 2 -3 10 -11 17 -8 7 -14 8 -14 3z"/>
<path d="M9143 4652 c10 -10 14 -22 10 -27 -5 -4 -2 -5 5 -1 11 6 10 12 -4 27
-9 10 -19 19 -22 19 -3 0 2 -8 11 -18z"/>
<path d="M9190 4651 c0 -6 4 -13 10 -16 6 -3 7 1 4 9 -7 18 -14 21 -14 7z"/>
<path d="M3553 4637 c0 -8 6 -14 14 -14 9 0 10 4 2 14 -6 7 -12 13 -14 13 -1
0 -2 -6 -2 -13z"/>
<path d="M9068 4607 c-3 -19 -2 -25 4 -19 6 6 8 18 6 28 -3 14 -5 12 -10 -9z"/>
<path d="M3590 4610 c0 -5 5 -10 11 -10 5 0 7 5 4 10 -3 6 -8 10 -11 10 -2 0
-4 -4 -4 -10z"/>
<path d="M9026 4572 c-3 -5 1 -9 9 -9 8 0 15 4 15 9 0 4 -4 8 -9 8 -6 0 -12
-4 -15 -8z"/>
<path d="M9080 4576 c0 -2 7 -7 16 -10 8 -3 12 -2 9 4 -6 10 -25 14 -25 6z"/>
<path d="M3627 4539 c4 -13 8 -18 11 -10 2 7 -1 18 -6 23 -8 8 -9 4 -5 -13z"/>
<path d="M9007 4536 c-3 -8 0 -17 7 -19 10 -4 12 1 9 14 -6 23 -9 24 -16 5z"/>
<path d="M8988 4503 c7 -3 16 -2 19 1 4 3 -2 6 -13 5 -11 0 -14 -3 -6 -6z"/>
<path d="M3638 4482 c-11 -15 -11 -15 2 -6 8 7 28 10 44 8 15 -1 26 0 22 3
-13 13 -56 10 -68 -5z"/>
<path d="M9030 4486 c7 -7 13 -7 20 0 6 6 3 10 -10 10 -13 0 -16 -4 -10 -10z"/>
<path d="M8996 4468 c3 -5 10 -6 15 -3 13 9 11 12 -6 12 -8 0 -12 -4 -9 -9z"/>
<path d="M3706 4455 c-9 -26 -7 -32 5 -12 6 10 9 21 6 23 -2 3 -7 -2 -11 -11z"/>
<path d="M8975 4450 c3 -5 8 -10 11 -10 2 0 4 5 4 10 0 6 -5 10 -11 10 -5 0
-7 -4 -4 -10z"/>
<path d="M9030 4449 c0 -5 5 -7 10 -4 6 3 10 8 10 11 0 2 -4 4 -10 4 -5 0 -10
-5 -10 -11z"/>
<path d="M8948 4433 c7 -3 16 -2 19 1 4 3 -2 6 -13 5 -11 0 -14 -3 -6 -6z"/>
<path d="M8970 4420 c-9 -6 -10 -10 -3 -10 6 0 15 5 18 10 8 12 4 12 -15 0z"/>
<path d="M8925 4410 c-3 -6 1 -7 9 -4 18 7 21 14 7 14 -6 0 -13 -4 -16 -10z"/>
<path d="M3656 4397 c3 -10 9 -15 12 -12 3 3 0 11 -7 18 -10 9 -11 8 -5 -6z"/>
<path d="M8950 4396 c0 -2 7 -7 16 -10 8 -3 12 -2 9 4 -6 10 -25 14 -25 6z"/>
<path d="M8931 4380 c0 -8 4 -22 9 -30 12 -18 12 -2 0 25 -6 13 -9 15 -9 5z"/>
<path d="M3719 4363 c-13 -17 -13 -17 6 -3 11 8 22 16 24 17 2 2 0 3 -6 3 -6
0 -17 -8 -24 -17z"/>
<path d="M3749 4346 c9 -11 9 -15 -1 -19 -7 -3 -3 -4 8 -4 24 1 22 22 -3 31
-13 5 -14 4 -4 -8z"/>
<path d="M8910 4351 c0 -6 4 -13 10 -16 6 -3 7 1 4 9 -7 18 -14 21 -14 7z"/>
<path d="M3802 4330 c7 -10 14 -18 15 -16 6 6 -9 36 -18 36 -5 0 -4 -9 3 -20z"/>
<path d="M3830 4311 c0 -6 4 -13 10 -16 6 -3 7 1 4 9 -7 18 -14 21 -14 7z"/>
<path d="M8852 4315 c4 -4 1 -14 -7 -22 -18 -17 -19 -33 -3 -33 6 0 8 3 5 7
-4 3 0 14 9 24 12 14 13 18 2 25 -7 4 -10 4 -6 -1z"/>
<path d="M8896 4312 c-2 -4 -1 -14 4 -22 7 -11 9 -9 7 8 -1 24 -3 26 -11 14z"/>
<path d="M3800 4290 c8 -5 20 -10 25 -10 6 0 3 5 -5 10 -8 5 -19 10 -25 10 -5
0 -3 -5 5 -10z"/>
<path d="M3730 4269 c0 -5 5 -7 10 -4 6 3 10 8 10 11 0 2 -4 4 -10 4 -5 0 -10
-5 -10 -11z"/>
<path d="M8935 4270 c3 -5 8 -10 11 -10 2 0 4 5 4 10 0 6 -5 10 -11 10 -5 0
-7 -4 -4 -10z"/>
<path d="M3789 4253 c-13 -16 -12 -17 4 -4 9 7 17 15 17 17 0 8 -8 3 -21 -13z"/>
<path d="M3828 4263 c6 -2 9 -10 6 -15 -4 -7 -2 -8 5 -4 13 9 5 26 -12 25 -9
0 -8 -2 1 -6z"/>
<path d="M8836 4241 c-3 -5 1 -11 9 -14 9 -4 12 -1 8 9 -6 16 -10 17 -17 5z"/>
<path d="M3810 4231 c0 -6 4 -13 10 -16 6 -3 7 1 4 9 -7 18 -14 21 -14 7z"/>
<path d="M8790 4231 c0 -6 4 -13 10 -16 6 -3 7 1 4 9 -7 18 -14 21 -14 7z"/>
<path d="M8890 4229 c0 -5 5 -7 10 -4 6 3 10 8 10 11 0 2 -4 4 -10 4 -5 0 -10
-5 -10 -11z"/>
<path d="M3847 4207 c3 -4 8 -6 11 -3 3 3 11 1 19 -6 7 -6 16 -8 20 -4 3 3 1
6 -6 6 -7 0 -10 4 -7 8 2 4 -6 8 -19 8 -13 0 -21 -4 -18 -9z"/>
<path d="M8773 4187 c-3 -5 0 -14 6 -20 9 -9 10 -7 5 8 -6 18 -4 17 22 -5 22
-19 25 -20 11 -4 -14 17 -15 23 -5 27 7 3 3 4 -10 4 -13 -1 -26 -5 -29 -10z"/>
<path d="M8742 4170 c7 -11 16 -20 20 -20 5 0 3 9 -4 20 -7 11 -16 20 -20 20
-5 0 -3 -9 4 -20z"/>
<path d="M3816 4163 c-6 -14 -5 -15 5 -6 7 7 10 15 7 18 -3 3 -9 -2 -12 -12z"/>
<path d="M3890 4169 c0 -5 5 -7 10 -4 6 3 10 8 10 11 0 2 -4 4 -10 4 -5 0 -10
-5 -10 -11z"/>
<path d="M3915 4160 c-3 -6 1 -7 9 -4 18 7 21 14 7 14 -6 0 -13 -4 -16 -10z"/>
<path d="M8716 4155 c-9 -26 -7 -32 5 -12 6 10 9 21 6 23 -2 3 -7 -2 -11 -11z"/>
<path d="M3953 4148 c2 -7 -3 -19 -12 -26 -14 -11 -13 -12 6 -2 14 6 20 16 17
25 -7 18 -17 20 -11 3z"/>
<path d="M3897 4135 c3 -8 9 -12 14 -9 12 7 11 11 -5 17 -10 4 -13 1 -9 -8z"/>
<path d="M3099 4123 c-9 -10 -38 -36 -65 -58 -67 -55 -125 -106 -151 -132 -12
-13 -27 -23 -32 -23 -5 0 -16 -8 -23 -17 -7 -10 -40 -40 -73 -68 -89 -73 -143
-134 -173 -195 -23 -47 -27 -68 -27 -141 0 -77 3 -91 35 -155 45 -88 153 -200
231 -238 123 -59 273 -38 383 54 11 10 55 47 96 82 41 34 86 72 99 83 13 11
31 27 40 35 14 13 200 170 210 176 2 2 -3 9 -10 17 -8 7 -34 38 -59 67 -25 29
-61 71 -80 92 l-35 39 -125 -106 c-172 -147 -167 -143 -240 -206 -119 -103
-169 -122 -225 -85 -33 22 -62 70 -60 99 5 64 21 83 174 214 59 50 115 99 133
116 10 9 20 17 23 17 3 0 13 8 23 18 10 9 44 39 75 66 61 51 64 57 45 78 -7 7
-38 42 -68 78 -30 35 -64 75 -74 87 -24 28 -27 28 -47 6z"/>
<path d="M8730 4130 c0 -5 5 -10 10 -10 6 0 10 5 10 10 0 6 -4 10 -10 10 -5 0
-10 -4 -10 -10z"/>
<path d="M8765 4129 c-3 -4 2 -6 10 -5 21 3 28 13 10 13 -9 0 -18 -4 -20 -8z"/>
<path d="M8810 4131 c0 -6 4 -13 10 -16 6 -3 7 1 4 9 -7 18 -14 21 -14 7z"/>
<path d="M3975 4121 c-9 -15 15 -25 28 -12 9 9 7 10 -7 5 -13 -5 -17 -4 -12 4
4 7 5 12 2 12 -3 0 -7 -4 -11 -9z"/>
<path d="M3962 4094 c10 -10 20 -16 22 -13 3 3 -5 11 -17 18 -21 13 -21 12 -5
-5z"/>
<path d="M8715 4100 c-3 -5 -3 -10 2 -10 4 0 1 -5 -7 -11 -12 -8 -12 -10 -1
-7 8 2 15 12 17 21 3 19 -2 22 -11 7z"/>
<path d="M3919 4083 c-13 -16 -12 -17 4 -4 16 13 21 21 13 21 -2 0 -10 -8 -17
-17z"/>
<path d="M4005 4090 c-3 -5 -2 -10 4 -10 5 0 13 5 16 10 3 6 2 10 -4 10 -5 0
-13 -4 -16 -10z"/>
<path d="M8626 4064 c-8 -20 -8 -24 2 -24 4 0 8 9 9 20 2 24 -3 26 -11 4z"/>
<path d="M8655 4069 c-4 -6 -4 -13 -1 -16 3 -4 6 -1 6 6 0 7 5 9 12 5 7 -4 8
-3 4 4 -9 15 -13 15 -21 1z"/>
<path d="M3991 4058 c-1 -20 14 -24 25 -6 4 6 3 8 -4 4 -5 -3 -13 0 -15 6 -3
8 -6 6 -6 -4z"/>
<path d="M4046 4055 c-9 -26 -7 -32 5 -12 6 10 9 21 6 23 -2 3 -7 -2 -11 -11z"/>
<path d="M8735 4061 c-3 -5 -2 -12 3 -15 5 -3 9 1 9 9 0 17 -3 19 -12 6z"/>
<path d="M8680 4050 c-9 -6 -10 -10 -3 -10 6 0 15 5 18 10 8 12 4 12 -15 0z"/>
<path d="M4016 4032 c-2 -4 -1 -14 3 -21 6 -9 11 -10 15 -2 4 6 2 11 -4 11 -6
0 -8 5 -5 10 3 6 4 10 1 10 -3 0 -7 -4 -10 -8z"/>
<path d="M8696 4017 c3 -10 9 -15 12 -12 3 3 0 11 -7 18 -10 9 -11 8 -5 -6z"/>
<path d="M4050 4010 c0 -5 5 -10 10 -10 6 0 10 5 10 10 0 6 -4 10 -10 10 -5 0
-10 -4 -10 -10z"/>
<path d="M4088 4012 c8 -5 13 -13 12 -18 0 -5 7 -11 17 -13 10 -1 27 -10 38
-20 20 -16 20 -16 1 7 -11 12 -27 22 -38 22 -10 0 -17 5 -15 11 1 6 -5 14 -13
16 -12 4 -12 3 -2 -5z"/>
<path d="M8638 3999 c9 -10 17 -19 17 -19 0 0 1 8 1 18 0 10 -8 19 -17 19 -16
2 -17 0 -1 -18z"/>
<path d="M4073 3972 c1 -14 5 -18 11 -12 7 7 6 14 -1 21 -9 9 -12 7 -10 -9z"/>
<path d="M8580 3970 c-9 -6 -10 -10 -3 -10 6 0 15 5 18 10 8 12 4 12 -15 0z"/>
<path d="M8630 3970 c0 -5 5 -10 11 -10 5 0 7 5 4 10 -3 6 -8 10 -11 10 -2 0
-4 -4 -4 -10z"/>
<path d="M8706 3968 c3 -5 10 -6 15 -3 13 9 11 12 -6 12 -8 0 -12 -4 -9 -9z"/>
<path d="M4118 3953 c12 -2 20 -8 17 -13 -3 -5 5 -14 17 -20 20 -9 21 -9 7 2
-9 7 -16 18 -15 23 1 6 -10 11 -24 12 -22 1 -23 1 -2 -4z"/>
<path d="M8600 3950 c-8 -5 -12 -12 -9 -15 4 -3 12 1 19 10 14 17 11 19 -10 5z"/>
<path d="M4036 3923 c-6 -14 -5 -15 5 -6 7 7 10 15 7 18 -3 3 -9 -2 -12 -12z"/>
<path d="M4103 3929 c9 -6 15 -14 12 -20 -4 -5 -1 -9 4 -9 6 0 11 4 11 8 0 12
-22 32 -34 32 -6 0 -3 -5 7 -11z"/>
<path d="M8491 3930 c0 -8 6 -24 14 -34 8 -11 15 -14 15 -8 0 7 0 14 0 17 0 3
-3 5 -7 4 -4 0 -10 8 -14 18 -5 13 -8 14 -8 3z"/>
<path d="M8539 3929 c-12 -9 -12 -10 1 -6 8 2 23 0 33 -5 9 -5 17 -6 17 -4 0
13 -37 24 -51 15z"/>
<path d="M8616 3923 c-6 -14 -5 -15 5 -6 7 7 10 15 7 18 -3 3 -9 -2 -12 -12z"/>
<path d="M8463 3900 c-3 -11 -10 -17 -16 -13 -6 3 -7 1 -3 -5 4 -7 17 -17 29
-22 19 -10 20 -9 6 2 -12 9 -14 19 -8 36 5 12 6 22 3 22 -3 0 -8 -9 -11 -20z"/>
<path d="M8550 3906 c0 -2 7 -9 15 -16 9 -7 15 -8 15 -2 0 5 -7 12 -15 16 -8
3 -15 4 -15 2z"/>
<path d="M4160 3890 c-8 -5 -10 -10 -5 -10 6 0 3 -5 -5 -10 -9 -6 -10 -10 -3
-10 7 0 17 9 23 20 12 23 11 24 -10 10z"/>
<path d="M4116 3873 c-6 -14 -5 -15 5 -6 7 7 10 15 7 18 -3 3 -9 -2 -12 -12z"/>
<path d="M8515 3870 c-16 -7 -17 -9 -3 -9 9 -1 20 4 23 9 7 11 7 11 -20 0z"/>
<path d="M4250 3864 c0 -20 27 -37 36 -23 4 7 3 9 -4 5 -6 -3 -15 2 -21 11 -6
10 -11 13 -11 7z"/>
<path d="M8442 3854 c10 -10 20 -16 22 -13 3 3 -5 11 -17 18 -21 13 -21 12 -5
-5z"/>
<path d="M4157 3848 c-7 -5 0 -6 17 -4 16 3 31 7 33 10 8 8 -37 2 -50 -6z"/>
<path d="M4217 3823 c6 -16 5 -17 -13 -3 -15 11 -16 11 -7 0 7 -8 20 -15 28
-16 12 -2 13 2 5 17 -13 24 -22 25 -13 2z"/>
<path d="M4173 3801 c0 -11 5 -18 9 -15 4 3 5 11 1 19 -7 21 -12 19 -10 -4z"/>
<path d="M4272 3800 c7 -10 14 -18 15 -16 6 6 -9 36 -18 36 -5 0 -4 -9 3 -20z"/>
<path d="M8385 3810 c-3 -5 -2 -10 4 -10 5 0 13 5 16 10 3 6 2 10 -4 10 -5 0
-13 -4 -16 -10z"/>
<path d="M4318 3803 c13 -3 19 -9 16 -15 -4 -7 -2 -8 5 -4 17 11 3 26 -22 25
-22 -2 -22 -2 1 -6z"/>
<path d="M4253 3793 c10 -16 -18 -23 -34 -10 -7 7 -6 3 4 -9 9 -11 15 -24 12
-27 -3 -4 -2 -5 1 -3 3 2 6 8 6 13 1 4 8 13 16 19 12 9 12 13 2 19 -8 5 -11 4
-7 -2z"/>
<path d="M8331 3795 c0 -13 28 -50 33 -44 3 2 -4 15 -14 29 -11 14 -20 21 -19
15z"/>
<path d="M8305 3779 c-4 -6 -5 -12 -2 -15 2 -3 7 2 10 11 7 17 1 20 -8 4z"/>
<path d="M8436 3762 l-19 -27 24 22 c12 12 21 24 18 27 -2 2 -13 -8 -23 -22z"/>
<path d="M4312 3766 c7 -8 15 -12 17 -11 5 6 -10 25 -20 25 -5 0 -4 -6 3 -14z"/>
<path d="M4351 3764 c0 -11 3 -14 6 -6 3 7 2 16 -1 19 -3 4 -6 -2 -5 -13z"/>
<path d="M8380 3776 c0 -2 7 -7 16 -10 8 -3 12 -2 9 4 -6 10 -25 14 -25 6z"/>
<path d="M9207 3762 c-10 -10 -14 -22 -10 -26 5 -4 1 -6 -7 -4 -8 2 -14 -3
-12 -9 1 -7 -2 -12 -6 -10 -8 2 -77 -65 -135 -131 l-27 -32 22 -43 c13 -23 27
-45 31 -48 5 -3 9 -10 9 -15 1 -20 18 -54 27 -54 6 0 8 -6 5 -14 -3 -7 2 -16
10 -19 9 -4 13 -13 10 -22 -4 -8 1 -17 10 -21 9 -3 13 -10 11 -15 -3 -4 6 -26
20 -48 14 -23 25 -45 25 -51 0 -5 5 -10 12 -10 6 0 9 -3 5 -6 -4 -5 234 -485
250 -504 2 -2 47 39 100 93 72 72 93 100 85 109 -5 7 -24 39 -41 70 l-32 58
48 48 c26 27 71 74 100 104 l51 55 75 -37 c75 -38 107 -39 107 -5 0 8 4 15 8
15 4 0 16 15 27 33 10 17 25 38 32 45 7 8 10 19 6 25 -3 7 -3 9 2 5 7 -7 41
30 39 42 -1 3 6 10 15 17 18 13 20 11 -37 41 -24 12 -49 19 -54 15 -6 -3 -8
-1 -4 5 6 9 -15 21 -48 26 -6 1 -23 10 -38 20 -15 10 -33 14 -39 10 -7 -4 -9
-3 -6 3 8 13 -20 26 -35 16 -7 -4 -8 -1 -3 7 6 10 4 12 -11 6 -10 -4 -15 -4
-11 0 9 10 -92 56 -106 47 -5 -3 -7 -1 -4 4 8 12 -20 26 -34 17 -5 -3 -9 -1
-9 3 0 10 -95 56 -115 56 -8 0 -12 4 -9 8 2 4 -6 11 -18 15 -13 4 -23 6 -23 4
0 -1 -21 10 -48 24 -26 15 -53 24 -59 20 -7 -5 -8 -3 -3 6 6 10 4 12 -11 6
-10 -4 -15 -4 -11 0 9 9 -42 36 -54 28 -5 -3 -9 -1 -9 4 0 7 -42 32 -54 32 -2
0 -10 -8 -19 -18z m321 -419 l43 -25 -58 -59 c-52 -53 -58 -57 -65 -39 -4 11
-13 20 -19 20 -7 0 -9 3 -6 7 4 3 1 16 -6 27 -8 12 -29 48 -47 81 -18 33 -38
63 -44 67 -6 4 -7 8 -2 8 5 0 3 6 -3 14 -11 14 115 -48 207 -101z"/>
<path d="M4266 3753 c-6 -14 -5 -15 5 -6 7 7 10 15 7 18 -3 3 -9 -2 -12 -12z"/>
<path d="M8308 3750 c-21 -19 -23 -30 -6 -30 6 0 8 3 5 7 -4 3 1 12 11 19 9 7
15 14 12 17 -3 2 -13 -3 -22 -13z"/>
<path d="M4381 3743 c12 -15 12 -16 -6 -9 -15 5 -17 4 -8 -5 9 -9 17 -7 35 6
15 11 17 15 6 12 -10 -4 -18 -2 -18 3 0 6 -5 10 -11 10 -8 0 -7 -6 2 -17z"/>
<path d="M8395 3741 c-3 -5 -2 -12 3 -15 5 -3 9 1 9 9 0 17 -3 19 -12 6z"/>
<path d="M4316 3728 c3 -4 11 -5 19 -1 21 7 19 12 -4 10 -11 0 -18 -5 -15 -9z"/>
<path d="M8330 3730 c0 -5 5 -10 10 -10 6 0 10 5 10 10 0 6 -4 10 -10 10 -5 0
-10 -4 -10 -10z"/>
<path d="M8436 3732 c-3 -5 1 -9 9 -9 8 0 12 4 9 9 -3 4 -7 8 -9 8 -2 0 -6 -4
-9 -8z"/>
<path d="M8470 3736 c0 -2 7 -7 16 -10 8 -3 12 -2 9 4 -6 10 -25 14 -25 6z"/>
<path d="M4347 3705 c6 -11 9 -28 8 -37 -2 -10 0 -20 5 -23 12 -8 3 56 -10 68
-10 10 -10 8 -3 -8z"/>
<path d="M4434 3706 c-3 -8 -1 -23 5 -33 9 -15 10 -13 5 10 -4 17 -2 27 6 27
6 0 9 -4 5 -9 -3 -6 3 -14 12 -20 16 -9 16 -12 3 -21 -10 -6 -11 -10 -3 -10 7
0 17 9 23 20 6 11 7 20 3 19 -20 -3 -33 2 -30 12 3 18 -22 23 -29 5z"/>
<path d="M8380 3716 c0 -2 8 -10 18 -17 15 -13 16 -12 3 4 -13 16 -21 21 -21
13z"/>
<path d="M4390 3700 c0 -5 5 -10 10 -10 6 0 10 5 10 10 0 6 -4 10 -10 10 -5 0
-10 -4 -10 -10z"/>
<path d="M8307 3697 c-3 -8 1 -14 8 -14 7 0 11 6 8 14 -3 7 -6 13 -8 13 -2 0
-5 -6 -8 -13z"/>
<path d="M8430 3691 c0 -6 4 -13 10 -16 6 -3 7 1 4 9 -7 18 -14 21 -14 7z"/>
<path d="M8183 3683 c-7 -3 -13 -9 -13 -15 0 -6 6 -5 16 3 13 11 15 9 9 -17
-5 -27 -5 -28 5 -5 11 26 3 41 -17 34z"/>
<path d="M4416 3667 c3 -10 9 -15 12 -12 3 3 0 11 -7 18 -10 9 -11 8 -5 -6z"/>
<path d="M8277 3665 c-4 -8 -3 -16 1 -19 4 -3 9 4 9 15 2 23 -3 25 -10 4z"/>
<path d="M4500 3663 c0 -22 -3 -28 -18 -39 -13 -9 -13 -12 -1 -19 8 -5 11 -5
7 0 -4 4 2 15 12 24 15 12 17 20 10 31 -6 10 -10 11 -10 3z"/>
<path d="M8232 3640 c7 -10 14 -18 15 -16 6 6 -9 36 -18 36 -5 0 -4 -9 3 -20z"/>
<path d="M4441 3642 c-1 -7 -6 -10 -13 -6 -6 4 -8 3 -5 -4 8 -12 32 -10 44 3
4 4 3 5 -4 2 -6 -4 -14 -1 -16 5 -4 10 -6 10 -6 0z"/>
<path d="M8335 3641 c-3 -5 -2 -12 3 -15 5 -3 9 1 9 9 0 17 -3 19 -12 6z"/>
<path d="M4519 3622 c-11 -14 -11 -15 1 -5 12 11 16 8 25 -15 10 -22 9 -29 -4
-40 -14 -11 -13 -12 6 -2 15 7 20 16 16 28 -6 15 -5 15 10 3 21 -16 23 -5 3
15 -11 11 -16 11 -19 1 -3 -7 -6 -5 -6 5 -1 25 -17 30 -32 10z"/>
<path d="M8213 3633 c4 -6 2 -13 -4 -15 -7 -2 -6 -8 3 -16 12 -9 14 -8 13 8
-1 11 -5 23 -10 27 -4 5 -5 3 -2 -4z"/>
<path d="M8094 3609 c-3 -6 -1 -16 6 -22 10 -9 12 -8 6 7 -5 16 -2 17 21 12
21 -5 24 -4 13 4 -20 13 -37 13 -46 -1z"/>
<path d="M8170 3610 c0 -5 5 -10 10 -10 6 0 10 5 10 10 0 6 -4 10 -10 10 -5 0
-10 -4 -10 -10z"/>
<path d="M4466 3587 c3 -10 9 -15 12 -12 3 3 0 11 -7 18 -10 9 -11 8 -5 -6z"/>
<path d="M4493 3588 c-3 -6 -1 -8 5 -4 6 3 13 -2 15 -11 4 -17 5 -17 6 0 1 12
6 16 14 11 6 -4 8 -3 4 1 -12 13 -36 15 -44 3z"/>
<path d="M4596 3575 c-9 -26 -7 -32 5 -12 6 10 9 21 6 23 -2 3 -7 -2 -11 -11z"/>
<path d="M8121 3574 c0 -11 3 -14 6 -6 3 7 2 16 -1 19 -3 4 -6 -2 -5 -13z"/>
<path d="M8146 3574 c-9 -24 -2 -26 12 -4 7 11 8 20 3 20 -5 0 -12 -7 -15 -16z"/>
<path d="M8193 3575 c0 -8 4 -12 9 -9 5 3 6 10 3 15 -9 13 -12 11 -12 -6z"/>
<path d="M8080 3560 c9 -17 30 -20 30 -4 0 3 -4 2 -10 -1 -5 -3 -10 1 -10 9 0
9 -5 16 -10 16 -7 0 -7 -7 0 -20z"/>
<path d="M8226 3568 c3 -5 10 -6 15 -3 13 9 11 12 -6 12 -8 0 -12 -4 -9 -9z"/>
<path d="M4479 3543 c-13 -16 -12 -17 4 -4 16 13 21 21 13 21 -2 0 -10 -8 -17
-17z"/>
<path d="M4559 3538 c7 -10 17 -15 22 -13 4 3 12 -3 18 -12 6 -10 11 -13 11
-7 0 6 -7 17 -15 24 -8 7 -15 9 -15 5 0 -4 -8 -1 -17 6 -16 13 -17 12 -4 -3z"/>
<path d="M4683 3544 c9 -3 15 -10 12 -15 -4 -5 -1 -9 5 -9 19 0 5 25 -16 27
-16 2 -16 1 -1 -3z"/>
<path d="M7985 3534 c-19 -20 -7 -38 21 -31 15 4 14 5 -5 6 -20 1 -22 3 -11
16 10 13 15 13 21 3 4 -7 11 -10 14 -7 3 4 -1 11 -9 18 -11 9 -18 8 -31 -5z"/>
<path d="M4625 3529 c-4 -6 -5 -12 -2 -15 2 -3 7 2 10 11 7 17 1 20 -8 4z"/>
<path d="M8110 3528 c0 -6 3 -8 7 -5 3 4 11 2 18 -3 8 -7 12 -6 12 3 0 7 -9
14 -19 14 -10 1 -18 -3 -18 -9z"/>
<path d="M4757 3509 c7 -7 15 -10 18 -7 3 3 -2 9 -12 12 -14 6 -15 5 -6 -5z"/>
<path d="M8075 3510 c-16 -7 -17 -9 -3 -9 9 -1 20 4 23 9 7 11 7 11 -20 0z"/>
<path d="M4626 3492 c-3 -5 1 -9 9 -9 8 0 15 4 15 9 0 4 -4 8 -9 8 -6 0 -12
-4 -15 -8z"/>
<path d="M4785 3491 c-6 -5 -19 -11 -30 -13 -11 -2 -19 -8 -17 -13 2 -5 -4
-12 -14 -15 -16 -6 -16 -7 3 -12 17 -5 21 -2 18 13 -3 13 2 19 14 19 10 0 24
7 31 15 14 16 10 20 -5 6z"/>
<path d="M7950 3492 c0 -5 7 -9 15 -9 8 0 12 4 9 9 -3 4 -9 8 -15 8 -5 0 -9
-4 -9 -8z"/>
<path d="M4659 3478 c-7 -23 -4 -35 7 -35 9 0 11 4 4 12 -5 7 -7 15 -3 18 3 4
3 7 0 7 -4 0 -7 -1 -8 -2z"/>
<path d="M4820 3469 c0 -5 5 -7 10 -4 6 3 10 2 10 -4 0 -5 -8 -14 -17 -20 -10
-5 -16 -12 -13 -14 10 -11 42 23 37 38 -7 17 -27 21 -27 4z"/>
<path d="M7910 3469 c-12 -8 -10 -9 9 -4 13 4 21 3 18 -2 -3 -5 -1 -15 4 -23
7 -11 8 -9 6 9 -4 29 -16 35 -37 20z"/>
<path d="M8031 3463 c6 -7 7 -18 3 -24 -5 -8 -3 -9 5 -5 7 5 10 14 7 21 -3 8
0 16 7 18 7 3 2 4 -10 4 -16 -1 -19 -4 -12 -14z"/>
<path d="M4790 3460 c0 -5 5 -10 10 -10 6 0 10 5 10 10 0 6 -4 10 -10 10 -5 0
-10 -4 -10 -10z"/>
<path d="M7960 3465 c0 -5 5 -17 10 -25 5 -8 10 -10 10 -5 0 6 -5 17 -10 25
-5 8 -10 11 -10 5z"/>
<path d="M7868 3453 c7 -3 16 -2 19 1 4 3 -2 6 -13 5 -11 0 -14 -3 -6 -6z"/>
<path d="M7804 3443 c4 -7 2 -13 -3 -13 -6 0 -11 -5 -11 -11 0 -8 4 -8 14 1
12 9 15 8 13 -9 -1 -21 -25 -25 -40 -6 -5 6 -7 4 -4 -5 2 -8 14 -15 27 -15 29
0 37 37 13 56 -12 10 -15 10 -9 2z"/>
<path d="M4610 3429 c0 -5 5 -7 10 -4 6 3 10 8 10 11 0 2 -4 4 -10 4 -5 0 -10
-5 -10 -11z"/>
<path d="M4775 3429 c-4 -6 -4 -13 -1 -16 3 -4 6 -1 6 6 0 7 5 9 12 5 7 -4 8
-3 4 4 -9 15 -13 15 -21 1z"/>
<path d="M4836 3417 c-22 -18 -26 -26 -16 -32 8 -5 11 -4 7 2 -4 5 5 16 18 23
14 7 25 17 25 22 0 11 -2 11 -34 -15z"/>
<path d="M7850 3420 c-7 -13 -6 -20 4 -23 9 -4 12 0 9 12 -3 11 2 17 16 18 14
1 19 -4 16 -17 -3 -14 1 -17 12 -13 12 5 14 3 8 -8 -5 -8 -4 -11 0 -6 15 13
14 36 -1 30 -9 -3 -14 0 -12 8 5 20 -41 19 -52 -1z"/>
<path d="M4920 3411 c0 -5 7 -14 15 -21 10 -9 15 -9 15 -1 0 6 -5 11 -11 11
-5 0 -7 5 -4 10 3 6 1 10 -4 10 -6 0 -11 -4 -11 -9z"/>
<path d="M7745 3410 c3 -5 1 -10 -4 -10 -6 0 -11 -5 -11 -11 0 -8 5 -8 15 1
17 14 20 30 4 30 -5 0 -7 -4 -4 -10z"/>
<path d="M7990 3410 c0 -5 5 -10 11 -10 5 0 7 5 4 10 -3 6 -8 10 -11 10 -2 0
-4 -4 -4 -10z"/>
<path d="M4855 3401 c-3 -5 -2 -12 3 -15 15 -9 46 0 50 15 2 8 0 10 -5 4 -11
-14 -47 -19 -38 -6 3 6 4 11 1 11 -3 0 -7 -4 -11 -9z"/>
<path d="M4980 3390 c0 -5 5 -10 11 -10 5 0 7 -4 4 -10 -3 -6 1 -7 10 -4 11 5
14 2 8 -12 -4 -12 -3 -15 5 -10 18 11 14 22 -13 40 -14 9 -25 12 -25 6z"/>
<path d="M4795 3370 c2 -27 10 -33 12 -10 1 11 -2 22 -6 24 -4 3 -7 -4 -6 -14z"/>
<path d="M7835 3379 c-4 -6 -5 -12 -2 -15 2 -3 7 2 10 11 7 17 1 20 -8 4z"/>
<path d="M4831 3357 c-13 -21 -12 -21 5 -5 10 10 16 20 13 22 -3 3 -11 -5 -18
-17z"/>
<path d="M4916 3365 c4 -8 8 -15 10 -15 2 0 4 7 4 15 0 8 -4 15 -10 15 -5 0
-7 -7 -4 -15z"/>
<path d="M4957 3373 c-13 -12 -7 -23 11 -22 10 0 12 3 4 6 -6 2 -10 9 -6 14 6
10 0 12 -9 2z"/>
<path d="M7635 3369 c-4 -6 -5 -12 -2 -15 2 -3 7 2 10 11 7 17 1 20 -8 4z"/>
<path d="M7710 3370 c0 -6 7 -10 15 -10 8 0 15 2 15 4 0 2 -7 6 -15 10 -8 3
-15 1 -15 -4z"/>
<path d="M7860 3370 c-8 -5 -10 -10 -5 -10 6 0 17 5 25 10 8 5 11 10 5 10 -5
0 -17 -5 -25 -10z"/>
<path d="M4876 3353 c-6 -14 -5 -15 5 -6 7 7 10 15 7 18 -3 3 -9 -2 -12 -12z"/>
<path d="M7790 3360 c8 -5 20 -10 25 -10 6 0 3 5 -5 10 -8 5 -19 10 -25 10 -5
0 -3 -5 5 -10z"/>
<path d="M5047 3344 c5 -13 3 -15 -7 -9 -9 5 -11 4 -6 -3 4 -7 11 -12 17 -12
12 0 12 27 -1 35 -6 4 -7 -1 -3 -11z"/>
<path d="M7643 3345 c-7 -8 -13 -16 -13 -17 0 -8 40 -6 45 3 4 5 -2 6 -12 2
-16 -6 -16 -5 -4 10 16 20 1 22 -16 2z"/>
<path d="M7690 3353 c5 -2 8 -8 6 -12 -3 -4 0 -13 5 -21 7 -11 8 -9 6 9 -2 14
-9 26 -16 27 -6 1 -7 0 -1 -3z"/>
<path d="M7750 3350 c0 -5 5 -10 10 -10 6 0 10 5 10 10 0 6 -4 10 -10 10 -5 0
-10 -4 -10 -10z"/>
<path d="M4730 3346 c0 -2 8 -10 18 -17 15 -13 16 -12 3 4 -13 16 -21 21 -21
13z"/>
<path d="M4990 3339 c0 -5 -6 -7 -12 -3 -7 4 -9 3 -5 -1 13 -15 36 -14 30 1
-6 17 -13 18 -13 3z"/>
<path d="M5073 3335 c0 -8 4 -15 9 -15 4 0 8 7 8 15 0 8 -4 15 -8 15 -5 0 -9
-7 -9 -15z"/>
<path d="M7590 3343 c1 -12 26 -43 35 -43 5 0 0 9 -9 19 -13 15 -14 20 -4 24
8 4 7 6 -4 6 -10 1 -18 -2 -18 -6z"/>
<path d="M4948 3322 c9 -10 19 -17 21 -16 6 5 -20 34 -30 34 -5 0 -1 -8 9 -18z"/>
<path d="M7532 3313 c-18 -19 -20 -28 -11 -41 9 -14 10 -14 6 -1 -3 9 3 23 14
32 10 9 19 21 19 27 0 13 -1 12 -28 -17z"/>
<path d="M7726 3325 c4 -8 8 -15 10 -15 2 0 4 7 4 15 0 8 -4 15 -10 15 -5 0
-7 -7 -4 -15z"/>
<path d="M7816 3323 c-6 -14 -5 -15 5 -6 7 7 10 15 7 18 -3 3 -9 -2 -12 -12z"/>
<path d="M4873 3315 c0 -8 4 -12 9 -9 5 3 6 10 3 15 -9 13 -12 11 -12 -6z"/>
<path d="M4908 3313 c6 -2 18 -2 25 0 6 3 1 5 -13 5 -14 0 -19 -2 -12 -5z"/>
<path d="M5014 3309 c-3 -6 -3 -13 0 -16 3 -4 6 -1 6 5 0 6 7 9 15 6 8 -4 15
-4 15 -1 0 11 -30 16 -36 6z"/>
<path d="M7575 3310 c3 -5 11 -10 16 -10 6 0 7 5 4 10 -3 6 -11 10 -16 10 -6
0 -7 -4 -4 -10z"/>
<path d="M7670 3298 c-12 -22 -12 -22 6 -6 10 10 15 20 12 24 -4 3 -12 -5 -18
-18z"/>
<path d="M4980 3301 c0 -6 4 -13 10 -16 6 -3 7 1 4 9 -7 18 -14 21 -14 7z"/>
<path d="M5057 3296 c-5 -12 -3 -15 5 -10 8 5 9 1 4 -12 -5 -14 -4 -16 4 -7 8
7 9 17 3 28 -9 16 -10 16 -16 1z"/>
<path d="M5094 3290 c2 -18 9 -25 25 -24 14 0 20 -4 17 -13 -3 -7 -1 -13 5
-13 6 0 9 8 7 18 -2 11 -11 16 -27 14 -13 -2 -21 0 -18 5 3 5 1 15 -4 23 -7
11 -8 8 -5 -10z"/>
<path d="M5115 3300 c3 -5 8 -10 11 -10 2 0 4 5 4 10 0 6 -5 10 -11 10 -5 0
-7 -4 -4 -10z"/>
<path d="M4915 3291 c-3 -5 -2 -12 3 -15 5 -3 9 1 9 9 0 17 -3 19 -12 6z"/>
<path d="M7550 3290 c-13 -8 -12 -10 3 -10 9 0 17 5 17 10 0 12 -1 12 -20 0z"/>
<path d="M7696 3283 c-6 -14 -5 -15 5 -6 7 7 10 15 7 18 -3 3 -9 -2 -12 -12z"/>
<path d="M7806 3292 c-3 -5 1 -9 9 -9 8 0 12 4 9 9 -3 4 -7 8 -9 8 -2 0 -6 -4
-9 -8z"/>
<path d="M7586 3277 c-17 -12 -17 -14 1 -28 17 -13 17 -13 3 5 -14 18 -13 19
3 13 12 -5 16 -3 11 5 -5 8 -2 9 10 5 10 -4 15 -3 11 3 -8 13 -18 13 -39 -3z"/>
<path d="M5207 3262 c-12 -13 -13 -21 -6 -32 9 -12 10 -12 5 2 -4 12 3 22 22
32 17 10 21 15 11 16 -9 0 -23 -8 -32 -18z"/>
<path d="M7482 3271 c-7 -4 -10 -15 -6 -25 4 -11 2 -16 -7 -14 -7 2 -14 -6
-16 -17 -3 -18 -2 -18 5 -2 4 10 12 19 17 20 6 1 11 7 11 12 1 6 2 15 3 20 1
6 6 3 11 -5 6 -9 10 -10 10 -3 0 16 -14 23 -28 14z"/>
<path d="M5030 3256 c0 -2 7 -7 16 -10 8 -3 12 -2 9 4 -6 10 -25 14 -25 6z"/>
<path d="M5076 3252 c-3 -4 4 -9 15 -9 23 -2 25 3 4 10 -8 4 -16 3 -19 -1z"/>
<path d="M5230 3249 c-13 -9 -12 -10 2 -5 10 3 20 1 23 -4 5 -9 -6 -14 -26
-12 -3 1 -6 -5 -6 -12 0 -7 6 -13 13 -13 7 0 11 4 9 8 -3 4 2 9 10 13 8 3 12
12 9 21 -7 18 -14 19 -34 4z"/>
<path d="M5318 3239 c-12 -13 -14 -19 -5 -19 7 0 18 9 25 20 15 25 3 25 -20
-1z"/>
<path d="M7540 3249 c0 -5 5 -7 10 -4 6 3 10 8 10 11 0 2 -4 4 -10 4 -5 0 -10
-5 -10 -11z"/>
<path d="M7630 3251 c0 -6 4 -12 8 -15 5 -3 9 1 9 9 0 8 -4 15 -9 15 -4 0 -8
-4 -8 -9z"/>
<path d="M5346 3219 c-7 -17 -17 -30 -22 -29 -5 1 -9 -3 -11 -10 -1 -6 0 -7 4
0 2 5 9 7 15 4 5 -3 12 4 15 16 4 17 8 19 15 8 6 -8 7 -5 2 12 -6 22 -5 23 10
11 9 -7 16 -9 16 -3 0 5 -7 13 -16 16 -10 4 -19 -4 -28 -25z"/>
<path d="M7350 3240 c0 -5 5 -10 10 -10 6 0 10 5 10 10 0 6 -4 10 -10 10 -5 0
-10 -4 -10 -10z"/>
<path d="M7520 3241 c0 -6 4 -13 10 -16 6 -3 7 1 4 9 -7 18 -14 21 -14 7z"/>
<path d="M5155 3229 c-19 -9 -19 -9 1 -6 23 5 42 -18 38 -45 -1 -10 3 -16 9
-15 7 1 11 -4 9 -11 -1 -8 2 -11 8 -7 8 5 6 13 -4 24 -9 10 -14 20 -12 22 3 2
-3 14 -12 26 -13 16 -22 19 -37 12z"/>
<path d="M7392 3231 c-11 -6 -10 -10 4 -15 9 -3 19 -4 22 -1 3 3 0 5 -7 5 -7
0 -9 5 -6 10 7 12 4 12 -13 1z"/>
<path d="M5055 3219 c-4 -6 -5 -12 -2 -15 2 -3 7 2 10 11 7 17 1 20 -8 4z"/>
<path d="M7318 3223 c7 -3 16 -2 19 1 4 3 -2 6 -13 5 -11 0 -14 -3 -6 -6z"/>
<path d="M7575 3220 c-4 -6 -10 -8 -14 -6 -4 3 -8 -1 -8 -9 0 -13 4 -12 19 2
18 16 22 23 14 23 -3 0 -8 -5 -11 -10z"/>
<path d="M5280 3210 c8 -5 20 -10 25 -10 6 0 3 5 -5 10 -8 5 -19 10 -25 10 -5
0 -3 -5 5 -10z"/>
<path d="M7172 3189 c-13 -16 -21 -29 -17 -29 7 0 55 47 55 55 0 13 -17 2 -38
-26z"/>
<path d="M7342 3200 c-7 -11 -8 -20 -3 -20 5 0 11 7 15 15 3 9 12 12 23 9 15
-5 16 -4 3 5 -20 15 -23 14 -38 -9z"/>
<path d="M3996 3122 c-25 -43 -46 -84 -46 -90 0 -7 -4 -12 -9 -12 -5 0 -13
-10 -17 -22 -4 -13 -10 -25 -13 -28 -6 -5 -27 -38 -78 -130 -11 -19 -37 -64
-58 -99 -118 -200 -100 -369 53 -501 51 -44 163 -103 227 -119 117 -29 248 9
333 98 38 39 134 192 218 346 6 11 26 45 44 75 18 30 33 60 33 67 0 7 3 10 7
8 4 -2 16 16 28 40 l21 43 -92 53 c-51 29 -94 52 -96 50 -2 -1 -7 1 -10 7 -3
5 -15 14 -26 19 -21 12 -15 18 -90 -112 -97 -171 -229 -393 -243 -409 -21 -22
-65 -46 -87 -46 -28 0 -86 32 -101 56 -20 29 -24 72 -11 109 9 25 83 162 117
215 36 57 73 127 73 137 0 7 3 10 7 8 3 -2 17 17 30 43 13 26 35 64 48 84 13
20 21 42 17 47 -5 10 -35 28 -191 118 l-42 24 -46 -79z"/>
<path d="M5260 3196 c0 -2 7 -7 16 -10 8 -3 12 -2 9 4 -6 10 -25 14 -25 6z"/>
<path d="M5455 3190 c-4 -6 -11 -8 -16 -5 -5 4 -9 1 -9 -4 0 -14 10 -13 40 4
18 10 20 14 8 15 -9 0 -20 -5 -23 -10z"/>
<path d="M7270 3190 c0 -5 5 -10 10 -10 6 0 10 5 10 10 0 6 -4 10 -10 10 -5 0
-10 -4 -10 -10z"/>
<path d="M7473 3183 c0 -9 4 -10 14 -2 7 6 13 12 13 14 0 1 -6 2 -13 2 -8 0
-14 -6 -14 -14z"/>
<path d="M5565 3179 c-4 -6 -4 -13 -1 -16 3 -4 6 -1 6 6 0 8 6 11 16 7 8 -3
12 -2 9 4 -8 13 -22 13 -30 -1z"/>
<path d="M7109 3186 c-1 -3 -2 -9 -3 -13 -1 -5 -5 -14 -10 -21 -4 -7 -5 -16
-2 -19 3 -4 6 -1 6 6 0 7 5 9 13 5 6 -4 9 -4 5 1 -4 4 -3 14 3 21 7 8 7 14 -1
19 -5 3 -11 4 -11 1z"/>
<path d="M7192 3174 c-7 -8 -8 -14 -3 -14 10 0 25 19 20 25 -2 1 -10 -3 -17
-11z"/>
<path d="M7360 3183 c0 -6 8 -17 18 -24 16 -13 16 -13 2 6 -8 11 -16 22 -17
24 -2 2 -3 0 -3 -6z"/>
<path d="M7451 3174 c0 -11 3 -14 6 -6 3 7 2 16 -1 19 -3 4 -6 -2 -5 -13z"/>
<path d="M5245 3170 c-3 -6 1 -7 9 -4 18 7 21 14 7 14 -6 0 -13 -4 -16 -10z"/>
<path d="M7227 3167 c3 -4 7 -6 11 -3 3 3 10 -1 16 -9 8 -11 15 -12 26 -4 13
9 12 10 -2 5 -12 -3 -18 0 -18 9 0 7 -9 13 -19 12 -11 0 -17 -5 -14 -10z"/>
<path d="M7305 3170 c3 -5 8 -10 11 -10 2 0 4 5 4 10 0 6 -5 10 -11 10 -5 0
-7 -4 -4 -10z"/>
<path d="M5280 3166 c0 -2 7 -7 16 -10 8 -3 12 -2 9 4 -6 10 -25 14 -25 6z"/>
<path d="M5537 3163 c-4 -3 -7 -11 -7 -17 0 -6 5 -5 12 2 6 6 9 14 7 17 -3 3
-9 2 -12 -2z"/>
<path d="M5260 3156 c0 -2 8 -10 18 -17 15 -13 16 -12 3 4 -13 16 -21 21 -21
13z"/>
<path d="M5353 3145 c0 -8 4 -12 9 -9 4 3 8 9 8 15 0 5 -4 9 -8 9 -5 0 -9 -7
-9 -15z"/>
<path d="M5419 3156 c-6 -4 -4 -44 2 -40 4 2 6 11 3 18 -6 16 26 17 39 1 5 -6
7 -4 5 4 -3 11 -39 23 -49 17z"/>
<path d="M5568 3146 c-11 -8 -14 -17 -7 -27 7 -12 9 -11 9 3 0 9 6 18 13 21 6
2 10 7 7 10 -3 3 -13 0 -22 -7z"/>
<path d="M5682 3139 c-19 -30 -11 -32 11 -3 10 13 14 24 10 24 -5 0 -14 -9
-21 -21z"/>
<path d="M5707 3133 c-12 -16 -14 -24 -5 -29 6 -4 16 0 23 9 9 12 15 13 23 5
6 -6 13 -10 15 -7 2 2 -7 13 -18 24 l-21 21 -17 -23z m17 -8 c-4 -8 -11 -15
-16 -15 -6 0 -5 6 2 15 7 8 14 15 16 15 2 0 1 -7 -2 -15z"/>
<path d="M5767 3132 c33 -34 43 -39 43 -21 0 5 -5 7 -11 4 -6 -4 -9 -1 -7 7 2
7 -1 15 -7 17 -5 2 -19 8 -30 14 -12 6 -7 -3 12 -21z"/>
<path d="M7130 3151 c0 -5 5 -13 10 -16 6 -3 10 -2 10 4 0 5 -4 13 -10 16 -5
3 -10 2 -10 -4z"/>
<path d="M7200 3149 c-12 -9 -12 -10 4 -5 14 5 17 3 12 -11 -6 -15 -5 -16 5
-5 18 17 -1 35 -21 21z"/>
<path d="M7350 3150 c0 -5 5 -10 11 -10 5 0 7 5 4 10 -3 6 -8 10 -11 10 -2 0
-4 -4 -4 -10z"/>
<path d="M6936 3142 c-3 -5 4 -8 16 -8 12 1 23 -6 26 -14 5 -13 3 -13 -14 0
-17 14 -18 13 -7 -1 7 -9 9 -20 5 -25 -4 -4 1 -2 11 5 21 17 22 37 1 45 -21 8
-32 8 -38 -2z"/>
<path d="M7060 3145 c0 -5 5 -17 10 -25 5 -8 10 -10 10 -5 0 6 -5 17 -10 25
-5 8 -10 11 -10 5z"/>
<path d="M7167 3137 c-3 -8 1 -14 8 -14 7 0 11 6 8 14 -3 7 -6 13 -8 13 -2 0
-5 -6 -8 -13z"/>
<path d="M7300 3142 c0 -6 5 -14 10 -17 6 -4 7 -11 4 -17 -4 -7 -2 -8 5 -4 9
6 9 12 -1 24 -7 10 -14 19 -15 21 -2 2 -3 -1 -3 -7z"/>
<path d="M5146 3128 c3 -5 10 -6 15 -3 13 9 11 12 -6 12 -8 0 -12 -4 -9 -9z"/>
<path d="M5376 3125 c-9 -26 -7 -32 5 -12 6 10 9 21 6 23 -2 3 -7 -2 -11 -11z"/>
<path d="M5512 3126 c7 -8 15 -12 17 -11 5 6 -10 25 -20 25 -5 0 -4 -6 3 -14z"/>
<path d="M7237 3126 c-3 -8 0 -17 7 -19 10 -4 12 1 9 14 -6 23 -9 24 -16 5z"/>
<path d="M5481 3123 c-1 -17 16 -25 25 -12 4 7 3 9 -4 5 -5 -3 -13 0 -15 6 -4
9 -6 10 -6 1z"/>
<path d="M5919 3114 c6 -12 8 -24 5 -26 -2 -3 2 -11 11 -18 10 -8 15 -9 15 -1
0 6 -5 11 -11 11 -5 0 -8 4 -5 9 3 4 -1 17 -10 27 -14 18 -15 18 -5 -2z"/>
<path d="M6757 3113 c3 -7 6 -13 8 -13 2 0 5 6 8 13 3 8 -1 14 -8 14 -7 0 -11
-6 -8 -14z"/>
<path d="M6810 3124 c-20 -6 -43 -42 -35 -54 8 -12 45 6 45 21 0 6 -7 3 -16
-6 -9 -9 -19 -13 -23 -10 -3 4 8 18 24 31 17 13 28 23 25 23 -3 -1 -12 -3 -20
-5z"/>
<path d="M7035 3120 c-3 -5 -1 -10 4 -10 6 0 11 5 11 10 0 6 -2 10 -4 10 -3 0
-8 -4 -11 -10z"/>
<path d="M7110 3119 c0 -5 -5 -7 -12 -3 -6 4 -8 3 -5 -3 7 -11 43 -10 54 2 5
4 2 5 -4 1 -7 -4 -13 -2 -13 3 0 6 -4 11 -10 11 -5 0 -10 -5 -10 -11z"/>
<path d="M6000 3107 c12 -17 11 -21 -10 -37 -14 -10 -21 -22 -17 -26 4 -4 7
-2 7 4 0 7 5 12 11 12 5 0 7 -4 4 -10 -3 -6 1 -7 10 -4 10 4 15 2 13 -7 -2 -8
6 -14 17 -15 15 -1 16 0 2 3 -9 3 -15 9 -12 14 4 5 -1 12 -10 15 -12 5 -13 9
-4 21 10 11 8 18 -6 31 -18 16 -18 16 -5 -1z"/>
<path d="M6920 3110 c20 -13 33 -13 25 0 -3 6 -14 10 -23 10 -15 0 -15 -2 -2
-10z"/>
<path d="M5870 3099 c0 -5 -5 -7 -10 -4 -6 3 -13 -1 -16 -9 -3 -9 -10 -14 -15
-11 -14 9 -33 -35 -19 -49 8 -8 9 -6 4 8 -5 13 -4 17 4 12 8 -5 10 -1 5 10 -4
12 -3 15 5 10 7 -4 15 -1 18 8 5 14 8 14 30 0 22 -15 24 -15 30 0 3 8 4 21 1
28 -3 7 -6 3 -6 -9 -1 -16 -6 -21 -16 -17 -12 5 -13 10 -4 20 8 10 8 14 0 14
-6 0 -11 -5 -11 -11z"/>
<path d="M6050 3095 c0 -8 -4 -15 -10 -15 -5 0 -10 -4 -10 -10 0 -19 17 -10
28 15 7 15 8 25 2 25 -6 0 -10 -7 -10 -15z"/>
<path d="M6142 3090 c0 -14 2 -19 5 -12 2 6 2 18 0 25 -3 6 -5 1 -5 -13z"/>
<path d="M6562 3090 c0 -14 2 -19 5 -12 2 6 2 18 0 25 -3 6 -5 1 -5 -13z"/>
<path d="M6706 3093 c-6 -14 -5 -15 5 -6 7 7 10 15 7 18 -3 3 -9 -2 -12 -12z"/>
<path d="M6735 3101 c3 -5 -4 -16 -15 -24 -19 -13 -19 -15 -4 -21 9 -4 19 -4
22 -1 3 3 -1 5 -8 5 -10 0 -9 5 3 18 20 21 22 32 6 32 -5 0 -8 -4 -4 -9z"/>
<path d="M6832 3088 c2 -13 7 -22 12 -20 5 2 17 -9 27 -25 10 -15 19 -24 19
-20 0 17 -33 56 -43 50 -6 -4 -8 2 -5 15 4 12 2 22 -4 22 -5 0 -8 -10 -6 -22z"/>
<path d="M6860 3104 c0 -5 7 -18 15 -28 8 -11 15 -16 15 -10 0 5 -7 18 -15 28
-8 11 -15 16 -15 10z"/>
<path d="M7151 3097 c-8 -10 -7 -14 4 -14 8 0 12 4 9 8 -2 4 2 10 8 12 8 4 9
6 2 6 -6 1 -17 -5 -23 -12z"/>
<path d="M5416 3088 c3 -4 11 -5 19 -1 21 7 19 12 -4 10 -11 0 -18 -5 -15 -9z"/>
<path d="M5570 3090 c0 -5 5 -10 10 -10 6 0 10 5 10 10 0 6 -4 10 -10 10 -5 0
-10 -4 -10 -10z"/>
<path d="M5687 3089 c7 -7 15 -10 18 -7 3 3 -2 9 -12 12 -14 6 -15 5 -6 -5z"/>
<path d="M5730 3090 c0 -5 5 -10 10 -10 6 0 10 5 10 10 0 6 -4 10 -10 10 -5 0
-10 -4 -10 -10z"/>
<path d="M5965 3089 c-4 -6 -4 -13 -1 -16 3 -4 6 -1 6 6 0 7 5 9 10 6 6 -3 10
-1 10 4 0 14 -17 14 -25 0z"/>
<path d="M6236 3093 c-10 -10 -7 -23 5 -23 5 0 7 5 4 10 -3 6 -2 10 4 10 5 0
12 -6 14 -12 4 -10 6 -9 6 1 1 11 6 10 21 -4 21 -19 28 -12 8 9 -14 13 -52 18
-62 9z"/>
<path d="M6360 3090 c0 -5 5 -10 10 -10 6 0 10 5 10 10 0 6 -4 10 -10 10 -5 0
-10 -4 -10 -10z"/>
<path d="M6435 3074 c-23 -31 -26 -50 -7 -46 14 2 16 -14 2 -21 -6 -3 -5 -4 2
-3 7 2 13 9 13 17 0 8 -6 13 -12 12 -19 -4 -16 11 6 31 11 10 25 14 37 9 18
-6 18 -6 2 10 -21 22 -20 22 -43 -9z"/>
<path d="M6600 3090 c0 -5 5 -10 10 -10 6 0 10 5 10 10 0 6 -4 10 -10 10 -5 0
-10 -4 -10 -10z"/>
<path d="M6900 3090 c0 -5 5 -10 10 -10 6 0 10 5 10 10 0 6 -4 10 -10 10 -5 0
-10 -4 -10 -10z"/>
<path d="M7020 3089 c0 -4 10 -6 21 -4 32 6 34 13 4 13 -14 0 -25 -4 -25 -9z"/>
<path d="M6936 3081 c-8 -12 4 -19 27 -15 15 2 18 -2 14 -18 -4 -15 -3 -18 5
-10 6 6 8 18 4 28 -4 9 -9 14 -13 11 -3 -4 -12 -2 -19 4 -8 6 -14 6 -18 0z"/>
<path d="M5375 3070 c-3 -5 -1 -10 4 -10 6 0 11 5 11 10 0 6 -2 10 -4 10 -3 0
-8 -4 -11 -10z"/>
<path d="M5510 3066 c7 -7 13 -7 20 0 6 6 3 10 -10 10 -13 0 -16 -4 -10 -10z"/>
<path d="M5655 3071 c-4 -7 0 -8 11 -4 11 4 15 3 10 -5 -4 -6 3 -16 16 -22 22
-11 22 -11 3 5 -11 9 -19 19 -17 23 6 11 -16 14 -23 3z"/>
<path d="M5763 3073 c-7 -3 -13 -9 -13 -15 0 -7 5 -6 14 1 11 9 15 9 19 -1 4
-9 6 -9 6 -1 1 15 -10 22 -26 16z"/>
<path d="M6072 3075 c4 -5 0 -14 -10 -22 -15 -12 -14 -13 12 -9 38 7 39 9 13
25 -12 8 -19 10 -15 6z"/>
<path d="M6157 3066 c-4 -10 -5 -21 -2 -24 3 -3 5 1 6 9 0 8 4 4 10 -9 5 -14
13 -20 21 -16 8 5 9 2 5 -9 -3 -10 -2 -17 4 -17 6 0 9 8 7 18 -2 9 -7 15 -12
12 -4 -3 -13 8 -20 25 -11 25 -13 27 -19 11z"/>
<path d="M6753 3054 c0 -17 2 -22 7 -13 5 6 6 18 3 26 -8 19 -10 16 -10 -13z"/>
<path d="M7068 3073 c6 -2 9 -10 6 -15 -4 -7 -2 -8 5 -4 13 9 5 26 -12 25 -9
0 -8 -2 1 -6z"/>
<path d="M7290 3070 c0 -5 5 -10 11 -10 5 0 7 5 4 10 -3 6 -8 10 -11 10 -2 0
-4 -4 -4 -10z"/>
<path d="M5710 3059 c0 -5 5 -7 10 -4 6 3 10 8 10 11 0 2 -4 4 -10 4 -5 0 -10
-5 -10 -11z"/>
<path d="M6203 3063 c9 -2 15 -8 12 -13 -3 -4 2 -11 10 -14 13 -4 14 -2 5 14
-6 11 -18 19 -28 19 -16 -1 -15 -2 1 -6z"/>
<path d="M6380 3062 c0 -6 -8 -13 -17 -15 -16 -4 -16 -5 -1 -6 18 -1 34 16 24
26 -3 4 -6 1 -6 -5z"/>
<path d="M6588 3063 c7 -3 16 -2 19 1 4 3 -2 6 -13 5 -11 0 -14 -3 -6 -6z"/>
<path d="M5600 3055 c0 -2 6 -8 13 -14 10 -8 14 -7 14 2 0 8 -6 14 -14 14 -7
0 -13 -1 -13 -2z"/>
<path d="M5845 3050 c-3 -6 1 -7 9 -4 18 7 21 14 7 14 -6 0 -13 -4 -16 -10z"/>
<path d="M6250 3050 c6 -4 11 -11 10 -16 -2 -13 30 -18 42 -6 15 15 38 3 31
-16 -4 -15 -3 -15 6 -2 8 11 7 18 -4 26 -8 6 -11 15 -7 20 4 4 0 3 -10 -4 -9
-8 -19 -9 -22 -4 -3 5 -17 10 -32 10 -15 0 -21 -4 -14 -8z m45 -10 c3 -5 -3
-10 -15 -10 -12 0 -18 5 -15 10 3 6 10 10 15 10 5 0 12 -4 15 -10z"/>
<path d="M6450 3050 c0 -5 5 -10 10 -10 6 0 10 5 10 10 0 6 -4 10 -10 10 -5 0
-10 -4 -10 -10z"/>
<path d="M6671 3050 c-9 -5 -4 -7 13 -7 29 0 32 2 13 10 -8 3 -20 2 -26 -3z"/>
<path d="M6810 3050 c0 -5 5 -10 10 -10 6 0 10 5 10 10 0 6 -4 10 -10 10 -5 0
-10 -4 -10 -10z"/>
<path d="M6900 3052 c0 -5 7 -9 15 -9 8 0 15 4 15 9 0 4 -7 8 -15 8 -8 0 -15
-4 -15 -8z"/>
<path d="M5870 3040 c-8 -5 -10 -10 -5 -10 6 0 17 5 25 10 8 5 11 10 5 10 -5
0 -17 -5 -25 -10z"/>
<path d="M5505 3030 c-3 -6 1 -7 9 -4 18 7 21 14 7 14 -6 0 -13 -4 -16 -10z"/>
<path d="M5754 3022 c11 -12 21 -20 24 -17 3 3 12 -1 21 -8 14 -11 14 -10 2 6
-8 9 -16 15 -19 12 -3 -3 -15 3 -26 12 -21 18 -21 18 -2 -5z"/>
<path d="M5910 3030 c0 -5 5 -10 10 -10 6 0 10 5 10 10 0 6 -4 10 -10 10 -5 0
-10 -4 -10 -10z"/>
<path d="M6097 3032 c-3 -4 0 -16 4 -27 9 -19 9 -19 5 2 -3 16 1 21 15 20 12
-1 17 -7 14 -15 -3 -7 0 -10 6 -7 5 4 8 12 6 18 -4 12 -44 20 -50 9z"/>
<path d="M6394 3006 c2 -21 6 -40 10 -43 3 -3 4 11 2 31 -2 21 -6 40 -10 43
-3 3 -4 -11 -2 -31z"/>
<path d="M6636 3025 c-9 -26 -7 -32 5 -12 6 10 9 21 6 23 -2 3 -7 -2 -11 -11z"/>
<path d="M6835 3031 c-9 -15 15 -25 28 -12 9 9 7 10 -7 5 -13 -5 -17 -4 -12 4
4 7 5 12 2 12 -3 0 -7 -4 -11 -9z"/>
<path d="M7170 3036 c0 -2 7 -7 16 -10 8 -3 12 -2 9 4 -6 10 -25 14 -25 6z"/>
<path d="M5961 3014 c0 -11 3 -14 6 -6 3 7 2 16 -1 19 -3 4 -6 -2 -5 -13z"/>
<path d="M6470 3021 c0 -9 30 -24 36 -18 2 1 -6 8 -16 15 -11 7 -20 8 -20 3z"/>
<path d="M6671 3021 c-9 -6 -10 -11 -2 -15 6 -4 9 -11 6 -16 -3 -4 2 -13 10
-20 8 -7 12 -17 8 -23 -4 -6 -1 -7 6 -3 9 6 9 12 -2 24 -8 10 -13 27 -12 40 1
12 1 22 1 22 -1 0 -7 -4 -15 -9z"/>
<path d="M6710 3021 c0 -5 5 -13 10 -16 6 -3 10 -2 10 4 0 5 -4 13 -10 16 -5
3 -10 2 -10 -4z"/>
<path d="M5990 3001 c-7 -15 -7 -19 5 -17 8 1 18 6 22 11 5 4 2 5 -6 0 -11 -6
-13 -4 -8 8 9 23 0 21 -13 -2z"/>
<path d="M6350 3000 c-6 -11 -9 -20 -8 -20 2 0 11 9 21 20 9 11 13 20 7 20 -5
0 -14 -9 -20 -20z"/>
<path d="M6766 3012 c-3 -5 1 -9 9 -9 8 0 15 4 15 9 0 4 -4 8 -9 8 -6 0 -12
-4 -15 -8z"/>
<path d="M6277 2999 c7 -7 15 -10 18 -7 3 3 -2 9 -12 12 -14 6 -15 5 -6 -5z"/>
<path d="M5696 2988 c3 -5 10 -6 15 -3 13 9 11 12 -6 12 -8 0 -12 -4 -9 -9z"/>
<path d="M5735 2990 c3 -5 8 -10 11 -10 2 0 4 5 4 10 0 6 -5 10 -11 10 -5 0
-7 -4 -4 -10z"/>
<path d="M6215 2990 c-3 -6 1 -13 9 -16 9 -3 13 -11 9 -18 -3 -6 -2 -7 2 -3
16 14 14 36 -3 30 -10 -4 -13 -2 -8 5 4 7 5 12 2 12 -3 0 -8 -5 -11 -10z"/>
<path d="M7013 2993 c4 -3 1 -13 -6 -22 -11 -14 -10 -14 5 -2 16 12 16 31 1
31 -4 0 -3 -3 0 -7z"/>
<path d="M5955 2981 c-3 -5 -2 -12 3 -15 5 -3 9 1 9 9 0 17 -3 19 -12 6z"/>
<path d="M6175 2980 c-4 -6 -10 -8 -15 -5 -10 6 -7 -21 4 -32 4 -4 6 -1 4 7
-1 8 2 14 8 13 6 -1 11 5 11 13 0 17 -4 18 -12 4z"/>
<path d="M6475 2981 c-3 -5 -2 -12 3 -15 5 -3 9 1 9 9 0 17 -3 19 -12 6z"/>
<path d="M5904 2972 c4 -3 14 -7 22 -8 9 -1 13 0 10 4 -4 3 -14 7 -22 8 -9 1
-13 0 -10 -4z"/>
<path d="M6536 2963 c-6 -14 -5 -15 5 -6 7 7 10 15 7 18 -3 3 -9 -2 -12 -12z"/>
<path d="M6827 2969 c7 -7 15 -10 18 -7 3 3 -2 9 -12 12 -14 6 -15 5 -6 -5z"/>
<path d="M6347 2949 c7 -7 15 -10 18 -7 3 3 -2 9 -12 12 -14 6 -15 5 -6 -5z"/>
<path d="M6430 2949 c0 -5 5 -7 10 -4 6 3 10 8 10 11 0 2 -4 4 -10 4 -5 0 -10
-5 -10 -11z"/>
<path d="M6467 2949 c7 -7 15 -10 18 -7 3 3 -2 9 -12 12 -14 6 -15 5 -6 -5z"/>
<path d="M6575 2950 c3 -5 8 -10 11 -10 2 0 4 5 4 10 0 6 -5 10 -11 10 -5 0
-7 -4 -4 -10z"/>
<path d="M6650 2949 c0 -5 5 -7 10 -4 6 3 10 8 10 11 0 2 -4 4 -10 4 -5 0 -10
-5 -10 -11z"/>
<path d="M6776 2948 c3 -4 11 -5 19 -1 21 7 19 12 -4 10 -11 0 -18 -5 -15 -9z"/>
<path d="M8050 2884 c-134 -66 -151 -77 -145 -98 4 -13 14 -80 21 -146 2 -25
7 -58 10 -75 3 -16 7 -50 10 -75 9 -90 12 -116 18 -160 4 -25 9 -63 12 -85 3
-22 7 -51 9 -65 2 -14 6 -50 9 -80 4 -30 8 -65 10 -77 3 -12 8 -53 12 -90 11
-109 8 -107 86 -69 37 18 65 35 62 38 -3 3 1 5 8 5 7 -1 32 7 55 17 40 17 42
19 38 54 -3 21 -6 48 -8 62 -1 14 -5 30 -9 35 -3 6 0 21 8 35 7 14 13 22 14
17 0 -9 83 32 92 47 4 6 8 8 8 3 0 -4 13 -1 30 8 16 8 31 15 32 14 2 -1 18 8
37 19 l34 20 50 -51 c28 -29 54 -51 59 -50 4 2 7 0 7 -5 -1 -4 -1 -10 0 -15 2
-11 81 44 81 56 0 6 3 8 6 4 3 -3 32 13 64 36 32 23 66 47 74 52 13 8 -43 69
-322 347 l-337 338 -135 -66z m144 -307 c99 -107 156 -172 156 -179 0 -4 -7
-8 -15 -8 -8 0 -15 -4 -15 -10 0 -5 -3 -9 -7 -8 -11 3 -57 -13 -63 -22 -10
-15 -50 -22 -51 -8 -1 7 -2 24 -4 38 -2 14 -5 37 -6 53 -2 15 -6 27 -9 27 -3
0 -6 15 -6 33 -1 40 -10 92 -19 106 -13 23 9 9 39 -22z"/>
<path d="M6035 2930 c3 -5 8 -10 11 -10 2 0 4 5 4 10 0 6 -5 10 -11 10 -5 0
-7 -4 -4 -10z"/>
<path d="M6433 2905 c0 -8 4 -12 9 -9 5 3 6 10 3 15 -9 13 -12 11 -12 -6z"/>
<path d="M6275 2901 c-3 -5 -2 -12 3 -15 5 -3 9 1 9 9 0 17 -3 19 -12 6z"/>
<path d="M6755 2899 c-4 -6 -5 -12 -2 -15 2 -3 7 2 10 11 7 17 1 20 -8 4z"/>
<path d="M5231 2614 c1 -5 0 -12 -1 -16 -4 -14 -6 -22 -19 -98 -7 -41 -15 -83
-17 -92 -30 -139 -35 -168 -29 -178 3 -5 1 -10 -6 -10 -6 0 -9 -8 -6 -20 3
-11 1 -20 -4 -20 -5 0 -9 -9 -9 -20 0 -12 -7 -55 -16 -96 -8 -42 -17 -88 -19
-102 -2 -15 -6 -38 -9 -52 -23 -105 -26 -131 -20 -141 4 -7 3 -9 -3 -6 -7 4
-12 -7 -15 -28 -3 -28 0 -35 14 -36 10 -1 21 -2 26 -4 44 -12 62 -16 94 -19
21 -3 41 -7 46 -10 8 -5 92 -16 92 -12 0 1 11 60 25 130 14 70 22 132 19 137
-6 11 26 12 42 1 6 -4 35 -77 64 -162 29 -85 55 -157 57 -159 2 -3 68 -6 148
-7 139 -3 145 -2 135 16 -6 10 -31 74 -56 142 -25 68 -51 129 -56 136 -6 6 -8
12 -4 12 3 0 1 11 -4 25 -8 21 -7 25 8 25 21 0 77 34 114 68 15 14 39 53 54
87 23 50 28 74 28 140 -1 79 -16 127 -56 175 -26 31 -80 70 -89 64 -5 -3 -9
-1 -9 4 0 5 -15 15 -32 22 -18 6 -40 15 -49 20 -17 9 -86 23 -219 46 -49 9
-53 9 -75 17 -11 3 -38 8 -59 12 -21 3 -50 8 -63 11 -13 4 -23 2 -22 -2z m303
-265 c22 -6 52 -24 68 -40 26 -25 29 -34 26 -83 -2 -30 -6 -52 -10 -50 -4 2
-9 -4 -13 -15 -10 -33 -70 -54 -131 -46 -60 7 -59 4 -39 100 4 17 8 41 10 55
2 14 5 27 6 30 4 9 7 24 8 43 1 20 20 21 75 6z"/>
<path d="M7088 2544 c-2 -1 -30 -5 -63 -9 -33 -3 -71 -8 -85 -10 -14 -2 -50
-6 -80 -10 -30 -3 -91 -11 -135 -16 -96 -13 -113 -15 -190 -24 -33 -3 -62 -8
-64 -11 -2 -2 1 -21 7 -41 6 -21 20 -67 31 -103 17 -57 22 -65 43 -63 63 5
294 36 301 40 4 2 7 1 7 -2 0 -8 -59 -114 -81 -147 -11 -14 -19 -29 -19 -33 0
-3 -37 -68 -81 -143 -45 -75 -82 -143 -82 -149 0 -7 -4 -13 -8 -13 -12 0 -50
-86 -45 -101 3 -8 8 -36 11 -64 3 -27 7 -59 9 -70 3 -11 5 -24 5 -28 1 -9 56
-5 221 17 14 2 48 7 75 10 28 3 75 9 105 13 30 3 63 7 73 9 9 1 18 2 20 4 1 1
20 3 42 5 217 19 207 15 185 90 -10 33 -24 80 -30 104 l-11 44 -47 -7 c-26 -4
-72 -9 -102 -12 -30 -3 -62 -8 -70 -11 -8 -3 -26 -5 -40 -4 -14 1 -37 -2 -51
-8 -34 -13 -58 1 -40 23 8 9 10 16 7 16 -4 0 2 10 14 22 11 12 20 25 20 29 0
4 19 40 43 81 24 40 55 93 69 118 14 25 55 96 92 159 36 63 63 117 61 121 -2
4 -7 34 -10 66 -11 115 -11 114 -61 112 -24 0 -45 -2 -46 -4z"/>
</g>
</svg>
